<svg width="58" height="56" viewBox="0 0 58 56" fill="none" xmlns="http://www.w3.org/2000/svg">
<path d="M33.2278 27.5564C34.6725 27.4251 36.1172 27.9504 37.2992 28.7384C37.9559 29.2638 38.7439 29.3951 39.5319 29.3951C40.9766 29.1324 41.6333 27.9504 41.2393 26.5057L36.6425 13.5035L23.509 15.4736C22.0643 15.7362 20.6196 14.6856 20.0943 13.3722C19.8316 12.5842 19.963 11.9275 20.357 11.2708C21.0136 10.2201 21.2763 9.03813 20.8823 7.59344C20.0943 4.57273 16.5482 2.2087 13.5275 2.60271C10.6381 2.99671 9.06215 5.75475 10.1128 8.64413C10.6382 10.2201 11.8202 11.4022 13.2649 12.1902C14.0529 12.5842 14.5782 13.2409 14.8409 14.0289C15.3662 15.4736 14.5782 16.6556 13.1335 16.9182L0 18.8883L12.8708 55.2682L49.6447 49.7521L45.048 36.7499C44.5226 35.3052 43.078 34.3858 41.6333 34.6485C40.8453 34.7798 40.3199 35.1739 40.0573 35.8305C39.4006 37.0125 38.3499 37.9319 36.7739 38.1946C33.8845 38.5886 30.6011 36.6185 29.5504 33.7292C28.2371 30.7085 30.2071 27.6877 33.2278 27.5564Z" fill="#4C4ECF"/>
<path d="M20.4897 29.1325C32.1785 18.8883 44.3927 9.43219 57.2636 0.895395C57.7889 0.50139 57.2636 -0.286623 56.7382 0.107383C43.736 8.77551 31.3905 18.2317 19.7017 28.4758C19.439 28.8698 20.0957 29.5265 20.4897 29.1325Z" fill="white"/>
<path d="M32.8333 22.4345C36.2481 19.2824 39.9254 16.6557 43.9968 14.2917C44.5222 14.029 43.9968 13.1097 43.4715 13.5037C39.4001 15.8677 35.7227 18.7571 32.1767 21.9091C31.7827 22.1718 32.4393 22.8285 32.8333 22.4345Z" fill="white"/>
<path d="M30.0772 25.0608C30.7339 25.0608 30.7339 24.1415 30.0772 24.1415C29.4205 24.1415 29.4205 25.0608 30.0772 25.0608Z" fill="white"/>
<path d="M22.3268 18.8883C25.6101 16.1303 29.1562 13.3722 32.8336 11.0082C33.3589 10.6142 32.8336 9.82617 32.3082 10.2202C28.6309 12.7155 25.0848 15.4736 21.6701 18.2316C21.2761 18.6256 21.9327 19.2823 22.3268 18.8883Z" fill="white"/>
</svg>
