<svg width="81" height="87" viewBox="0 0 81 87" fill="none" xmlns="http://www.w3.org/2000/svg">
<path opacity="0.2" d="M51.0693 85.4392C42.3127 84.0819 33.7045 81.856 25.2481 79.2464C22.3245 78.3387 19.4201 77.3963 16.5348 76.4193C13.8189 75.4907 11.0288 74.6417 8.4329 73.3871C3.14216 70.8383 0.751946 66.6194 0.439165 60.909C0.12095 55.0447 1.2636 49.1584 3.22402 43.6489C5.80809 36.3569 9.79264 29.6432 13.8544 23.0628C17.6503 16.9087 21.5745 10.7954 26.2026 5.23737C27.5027 3.67799 28.9207 2.12351 30.7647 1.27235C34.1144 -0.254929 36.3945 1.4889 38.0944 4.25468C40.5753 8.28229 39.4268 13.1695 39.2663 17.6073C39.1103 22.3644 40.8127 28.3454 46.6979 27.9639C49.4539 27.783 52.0203 26.4714 54.5116 25.4049C57.0157 24.3152 59.6164 23.4601 62.2779 22.8498C66.7535 21.8244 72.3145 20.992 76.3284 23.8305C79.6294 26.1841 80.6232 30.5813 79.8971 34.4045C78.7852 40.2625 74.1858 44.1314 69.5968 47.463C65.538 50.4087 59.8754 52.4071 59.5829 58.1751C59.4408 60.8879 60.6211 63.638 62.682 65.3963C65.2901 67.6384 68.903 68.1729 72.1822 69.2018C75.4613 70.2307 78.9324 72.3315 79.483 75.7291C80.0661 79.3408 77.0186 82.5592 73.8014 84.3107C69.4721 86.6542 65.0876 87.0509 60.6145 86.7347C57.4614 86.5149 54.2935 85.9398 51.0693 85.4392Z" fill="#0EF0C0"/>
</svg>
