<svg width="69" height="73" viewBox="0 0 69 73" fill="none" xmlns="http://www.w3.org/2000/svg">
<path opacity="0.2" d="M63.1248 12.5936C59.9233 10.7178 56.0874 9.99646 52.5444 9.08387L37.3059 5.12285C29.0215 2.96438 19.6627 -0.884453 10.9471 0.388177C4.2388 1.36041 -0.0778891 6.54809 0.562069 13.3431C0.926614 17.3135 2.62221 21.0148 4.31355 24.5665C6.69119 29.5839 9.26391 34.5019 11.9793 39.3181C16.6312 47.557 21.7961 55.4905 27.3691 63.1134C29.7961 67.7298 33.0381 72.5195 38.3121 72.013C41.447 71.6996 43.8412 69.3453 45.6119 66.94C48.6888 62.7439 51.0803 57.9091 53.7069 53.4407C58.2962 45.6087 63.9983 37.7387 67.2611 29.2444C69.6115 23.1169 69.3238 16.2303 63.1248 12.5936Z" fill="#EDB44C"/>
</svg>
