<svg width="43" height="61" viewBox="0 0 43 61" fill="none" xmlns="http://www.w3.org/2000/svg">
<path d="M40.2949 34.2256L40.0487 34.2256C39.3101 34.2256 38.6946 34.5948 38.2022 35.0872C36.9712 36.4413 35.1248 37.1799 33.0321 36.6875C31.1856 36.1951 29.7084 34.7179 29.216 32.8715C28.4774 29.4247 31.0625 26.3472 34.2631 26.3472C35.8634 26.3472 37.2174 26.9627 38.0791 28.0706C38.5715 28.563 39.187 28.9323 39.9256 28.9323L40.1718 28.9323C41.4028 28.9323 42.5107 27.8244 42.5107 26.5934L42.5107 13.5449L29.4622 13.5449C28.2312 13.5449 27.1233 12.437 27.1233 11.206L27.1233 10.9598C27.1233 10.2212 27.4926 9.60573 27.985 9.11333C29.3391 7.88234 30.0777 6.03584 29.5853 3.94315C29.0929 2.09667 27.6157 0.619488 25.7692 0.127092C22.3224 -0.611503 19.245 1.97357 19.245 5.17415C19.245 6.77443 19.8605 8.12853 20.9684 8.99023C21.4607 9.48262 21.83 10.0981 21.83 10.8367L21.83 11.0829C21.83 12.3139 20.7222 13.4218 19.4912 13.4218L6.44265 13.4218L6.44265 49.6129L42.6338 49.6129L42.6338 36.5644C42.6338 35.2103 41.5259 34.2256 40.2949 34.2256Z" fill="#E77B16"/>
<path d="M0.656526 40.38C5.94979 37.1794 11.7354 35.2098 17.8904 34.225C17.7673 33.9788 17.6442 33.7326 17.5211 33.3633C11.7354 36.687 5.82669 40.1338 2.13371 45.9194C2.01061 46.1656 2.13371 46.5349 2.37991 46.5349C7.18077 47.1504 11.8585 45.4271 14.936 41.611C15.1822 41.3648 15.0591 40.8724 14.5667 40.8724C11.2431 41.1186 8.41176 42.4727 6.07288 44.8116C5.82668 45.0578 5.94978 45.427 6.31907 45.5501C11.6123 47.7659 17.2749 47.7659 22.9375 47.7659C22.9375 47.5197 22.8144 47.1504 22.8144 46.9042C18.2597 47.6428 14.3205 49.4893 10.7507 52.3206C10.5045 52.5668 10.6275 52.9361 10.9968 53.0592C14.8129 54.6595 18.8752 55.3981 22.9375 55.275C23.4299 55.275 23.553 54.4133 23.0606 54.4133C19.3676 53.9209 16.6594 56.6291 17.398 60.4451C17.5211 61.0606 18.3828 60.8145 18.2597 60.199C17.6442 56.9984 19.2445 55.3981 22.8144 55.275C22.8144 55.0288 22.9375 54.6595 22.9375 54.4133C18.8752 54.5364 14.936 53.7978 11.12 52.1975C11.2431 52.4437 11.243 52.6899 11.3661 52.9361C14.8129 50.2279 18.7521 48.5045 23.0606 47.7659C23.553 47.6428 23.4299 46.9042 22.9375 46.9042C17.398 46.9042 11.8586 46.9042 6.56529 44.6885C6.68839 44.9347 6.68838 45.1809 6.81148 45.4271C9.02727 43.0882 11.4892 41.8572 14.6898 41.7341C14.5667 41.4879 14.4436 41.2417 14.3205 40.9955C12.5971 43.2113 10.2582 44.8116 7.55007 45.4271C6.68837 45.6733 5.08809 46.0425 4.3495 45.7963C2.62611 45.1808 5.08809 43.5806 5.82668 42.7189C9.27346 39.149 13.705 36.5639 18.1366 34.1019C18.629 33.8557 18.2597 33.2402 17.7673 33.2402C11.6123 34.225 5.70359 36.3177 0.287225 39.3952C-0.32827 40.0107 0.164129 40.7493 0.656526 40.38Z" fill="white"/>
<path d="M18.9983 30.7785C17.8904 30.6554 16.9057 30.7785 15.9209 31.0247C15.3054 31.1478 15.5516 32.0095 16.1671 31.8864C17.1518 31.6402 18.0135 31.517 18.9983 31.6401C19.6138 31.6401 19.6138 30.7785 18.9983 30.7785Z" fill="white"/>
<path d="M21.5832 30.2863C21.0908 30.1632 20.4753 30.1632 19.9829 30.0401C19.3674 29.917 19.1212 30.7787 19.7367 30.9018C20.2291 31.0249 20.8446 31.0249 21.337 31.148C21.8294 31.2711 22.0756 30.4094 21.5832 30.2863Z" fill="white"/>
</svg>
