<svg width="62" height="56" viewBox="0 0 62 56" fill="none" xmlns="http://www.w3.org/2000/svg">
<path d="M54.6588 19.6742C52.5584 19.2346 50.7863 19.8689 49.8417 21.0946C49.4577 21.6079 48.9054 21.8296 48.1539 21.8747L47.8931 21.9281C46.6508 21.9649 45.5401 21.0511 45.3574 19.8931L43.6686 8.71898L30.9628 8.76511C29.7206 8.80196 28.8684 9.68274 28.9361 10.81L28.9894 11.0708C29.0654 11.7073 29.5478 12.2063 30.0611 12.5903C31.5168 13.5965 32.4427 15.2002 32.2106 16.9865C32.04 18.5429 30.6888 19.9062 29.0092 20.1955C25.7341 20.9201 22.5086 18.7002 22.1516 15.8933C21.9998 14.6203 22.4537 13.3863 23.4208 12.5363C23.889 12.1688 24.158 11.6247 24.0821 10.9882L24.0288 10.7274C23.8461 9.56938 22.7046 8.77057 21.4931 8.69244L8.78741 8.73857L13.2055 39.6223L48.1482 39.3728L46.4594 28.1987C46.2767 27.0406 47.2439 26.1906 48.4861 26.1538L48.7469 26.1004C49.4984 26.0553 50.1574 26.3552 50.6399 26.8541C51.7507 27.7679 53.0688 28.3676 54.5718 28.2774C57.777 28.2736 59.8428 25.623 58.6501 22.7154C58.1534 21.35 56.5293 20.0521 54.6588 19.6742Z" fill="#4C4ECF"/>
<path d="M9.58241 43.9505C13.796 40.643 17.8947 37.3047 22.0775 34.1122C22.5456 33.7447 21.8332 33.1841 21.5108 33.4674C17.2972 36.7749 13.1986 40.1132 9.01575 43.3057C8.54757 43.6732 9.14504 44.203 9.58241 43.9505Z" fill="white"/>
<path d="M14.459 37.2468C15.4344 35.9061 16.7773 35.0336 18.2886 34.4526C18.8409 34.2309 18.5658 33.4178 18.0135 33.6395C16.2414 34.2738 14.8369 35.3763 13.7157 36.8012C13.3625 37.1995 14.1058 37.6451 14.459 37.2468Z" fill="white"/>
<path d="M45.1645 34.8761C46.9448 33.751 48.7251 32.626 50.6203 31.5317C51.0577 31.2792 50.6677 30.4353 50.1995 30.8028C48.4192 31.9278 46.6389 33.0529 44.7437 34.1471C44.3063 34.3996 44.6963 35.2436 45.1645 34.8761Z" fill="white"/>
<path d="M43.1386 36.9208C43.7135 37.0749 43.9292 36.27 43.3543 36.116C42.8102 35.8469 42.5637 36.7668 43.1386 36.9208Z" fill="white"/>
</svg>
