<svg width="84" height="82" viewBox="0 0 84 82" fill="none" xmlns="http://www.w3.org/2000/svg">
<path opacity="0.2" d="M64.8866 73.2339C62.7337 76.6191 60.0751 79.7868 56.1155 81.0158C55.3761 81.2407 54.6157 81.4132 53.8421 81.5149C51.9484 81.7646 50.0284 81.6448 48.1545 81.3166C46.4433 81.0151 44.6994 80.6886 43.0054 80.2206C38.6981 79.0414 34.4394 77.8506 30.274 76.1894C26.0811 74.5165 22.0024 72.5777 17.9881 70.5147C14.0474 68.4832 10.0698 66.4359 6.25388 64.165C4.6755 63.2255 3.13785 62.1407 2.00738 60.6664C0.934672 59.2603 0.395199 57.5514 0.252334 55.8068C-0.0740437 51.9309 1.09015 47.8816 2.34752 44.2742C3.30138 41.5245 4.53888 38.951 5.75931 36.3159C6.99946 33.6349 8.13849 30.9105 9.37469 28.2387C10.5202 25.7777 11.6986 23.3417 12.9269 20.9163C15.038 16.7421 17.2646 12.6285 19.6068 8.57551C21.5181 5.27106 23.3559 1.55494 27.4088 0.61577C30.9179 -0.198883 34.7197 0.762874 38.1327 1.59004C47.0677 3.76047 55.5613 7.41333 63.7632 11.5163C67.8248 13.5454 71.8312 15.7028 75.8244 17.8654C78.9431 19.5542 82.31 21.5017 83.0383 25.279C83.7429 28.9592 82.1611 32.8398 81.0364 36.2653C79.5924 40.6612 77.9791 44.9951 76.2278 49.2697C74.4306 53.6766 72.4823 58.0293 70.4369 62.3294C68.712 65.9855 67.0764 69.7886 64.8866 73.2339Z" fill="#EC6740"/>
</svg>
