<svg width="54" height="52" viewBox="0 0 54 52" fill="none" xmlns="http://www.w3.org/2000/svg">
<path d="M47.5952 27.5863C45.4142 27.0731 43.4899 27.8428 42.2071 29.254C41.6939 29.7672 41.0525 30.152 40.2827 30.152H40.0261C38.7432 30.152 37.5886 29.1257 37.5886 27.7145V14.1159H23.99C22.7071 14.1159 21.5525 13.0896 21.5525 11.6784V11.4219C21.5525 10.6521 21.9374 10.0107 22.4505 9.49754C23.8617 8.21465 24.6315 6.29031 24.1183 4.1094C23.6052 2.18507 22.0657 0.645605 20.1414 0.13245C16.5493 -0.637283 13.3421 2.05678 13.3421 5.39229C13.3421 7.06004 13.9835 8.47122 15.1381 9.36924C15.6513 9.8824 16.0361 10.5238 16.0361 11.2936V11.5502C16.0361 12.833 14.8815 13.9876 13.5986 13.9876H0V51.7046H37.7169V38.1059C37.7169 36.8231 38.7432 35.6684 40.1544 35.6684H40.411C41.1807 35.6684 41.8222 36.0533 42.3353 36.5665C43.3616 37.7211 44.7728 38.3625 46.3123 38.3625C49.7761 38.3625 52.4701 35.1553 51.5721 31.5632C51.1873 29.6389 49.5195 27.9711 47.5952 27.5863Z" fill="#E77B16"/>
<path d="M15.9075 12.833C16.0358 16.6817 14.368 21.5567 17.0621 24.8922C18.8581 27.0731 21.5522 27.2014 23.9897 26.1751C27.5818 24.6356 30.4041 21.0435 32.4568 17.708C34.1245 15.0139 36.562 11.2936 34.8942 8.08635C34.7659 7.82977 34.5094 7.82977 34.2528 7.95806C30.0193 10.9087 27.7101 15.5271 27.7101 20.6587C27.7101 21.1718 28.3515 21.3001 28.6081 20.9152C31.0456 17.1949 33.2265 13.3462 35.1508 9.36924C35.4074 8.85608 34.6377 8.34294 34.3811 8.85609C33.0982 11.1653 32.0719 13.6028 31.3022 16.1685C31.1739 16.6817 31.9436 16.9383 32.2002 16.5534C33.0982 15.1422 33.6113 13.8594 33.9962 12.3199C33.9962 12.1916 33.9962 11.935 33.8679 11.8067C30.6607 8.98437 26.9403 16.4251 31.3022 16.5534C32.8416 16.5534 33.0982 15.2705 34.2528 14.7574C34.7659 13.8594 35.1508 13.9876 35.2791 15.1422C35.9205 15.7837 35.9205 16.4251 35.2791 17.0666C34.8942 18.0929 33.8679 19.1192 33.2265 20.1455C30.789 23.9942 28.8647 28.0994 27.4535 32.3329C27.3252 32.7178 27.8384 33.1027 28.0949 32.8461C32.7133 30.4086 36.1771 26.6882 38.4863 22.0698C38.7429 21.5567 38.1015 21.1718 37.7166 21.5567C37.0752 22.1981 36.6903 22.7113 36.4337 23.481C36.3054 23.8659 36.8186 24.2508 37.0752 23.9942C40.0258 21.8133 42.335 18.606 44.7725 15.7837C47.8514 12.3199 50.802 8.7278 53.881 5.264C54.2658 4.75084 53.6244 4.1094 53.2395 4.62256C50.4172 7.82978 47.7231 11.037 44.9008 14.2442C42.335 17.3231 39.7692 20.7869 36.562 23.2244C36.8186 23.3527 37.0751 23.6093 37.2034 23.7376C37.5883 23.2244 37.8449 22.7113 38.2298 22.1981C37.9732 22.0698 37.7166 21.8133 37.46 21.685C35.1508 26.1751 31.8153 29.7672 27.3252 32.2047C27.5818 32.3329 27.8384 32.5895 27.9666 32.7178C29.3778 28.4843 31.1739 24.5073 33.6113 20.787C35.1508 18.3495 37.7166 15.912 36.562 12.9613C36.4337 12.7048 36.3054 12.5765 36.0488 12.5765C34.6377 12.833 34.3811 13.7311 33.2265 14.2442C33.0982 14.5008 32.8416 14.6291 32.7133 14.8857C29.891 13.2179 29.891 12.5765 32.5851 13.0896C32.8416 13.6028 31.3022 15.7837 31.0456 16.2968C31.3022 16.4251 31.5587 16.5534 31.9436 16.6817C32.5851 14.1159 33.6113 11.8067 34.8942 9.62582C34.6377 9.49753 34.3811 9.36924 34.1245 9.11266C32.2002 13.0896 30.0192 16.9383 27.5818 20.6587C27.8383 20.7869 28.2232 20.7869 28.4798 20.9152C28.4798 17.9646 29.5061 12.3199 32.5851 10.6521C32.8416 10.3955 32.9699 10.2673 33.2265 10.0107C33.4831 10.6521 33.8679 11.4219 34.1245 12.0633C34.1245 12.833 33.0982 14.3725 32.7133 15.1422C31.8153 16.81 30.789 18.3495 29.6344 19.8889C27.3252 22.8396 22.8351 27.9711 18.6015 25.5336C14.4963 23.0961 16.6772 16.6817 16.549 12.9613C16.8055 12.1916 15.9075 12.1916 15.9075 12.833Z" fill="white"/>
<path d="M20.9112 36.9514C21.681 37.0796 22.579 37.2079 23.3487 37.2079C23.9902 37.3362 23.9902 36.3099 23.3487 36.3099C22.579 36.1816 21.681 36.0533 20.9112 36.0533C20.3981 35.925 20.3981 36.8231 20.9112 36.9514Z" fill="white"/>
<path d="M29.8908 34.7705C30.7889 34.5139 31.8151 34.3856 32.7132 34.129C33.3546 34.0007 33.0981 33.1027 32.4566 33.231C31.5586 33.4876 30.5323 33.6159 29.6342 33.8725C28.9928 34.0007 29.2494 34.8988 29.8908 34.7705Z" fill="white"/>
</svg>
