<svg width="43" height="39" viewBox="0 0 43 39" fill="none" xmlns="http://www.w3.org/2000/svg">
<path fill-rule="evenodd" clip-rule="evenodd" d="M5.19658 0.129693C4.68979 0.303716 4.25895 0.621607 3.96926 1.03533C3.57488 1.59877 3.51395 1.97096 3.51395 3.81815V5.51311L2.86075 6.80443L2.20756 8.09574L1.45804 8.12427C0.730618 8.15199 0.701551 8.1606 0.469011 8.41826L0.229492 8.68373V11.3634V14.0431L0.466219 14.3054C0.683158 14.5457 0.751639 14.5704 1.28733 14.6004L1.87172 14.633V25.994V37.355L1.28733 37.3877C0.751639 37.4177 0.683158 37.4423 0.466219 37.6827C0.155181 38.0273 0.156085 38.3462 0.469093 38.6929L0.708695 38.9584L21.2004 38.9792L41.6921 39L41.9589 38.764C42.1798 38.5686 42.2258 38.4692 42.2258 38.1862C42.2258 37.9034 42.1798 37.8039 41.9594 37.609C41.7237 37.4004 41.6321 37.3734 41.1607 37.3734H40.6283V25.994V14.6147H41.1607C41.633 14.6147 41.7235 14.5878 41.9613 14.3775L42.2295 14.1403V11.3634V8.58652L41.9613 8.34934C41.7097 8.12679 41.6502 8.11216 40.997 8.11216H40.3009L39.664 6.87262L39.0271 5.63308L38.9861 3.72297C38.9488 1.99014 38.9287 1.77775 38.7686 1.43499C38.543 0.951934 38.0083 0.422631 37.5203 0.199351L37.1386 0.0246777L21.3732 0.00655206C6.58837 -0.0103544 5.58225 -0.00271404 5.19658 0.129693ZM37.0751 1.87545L37.3028 2.1006L37.3288 3.47937L37.3546 4.85807L30.7736 4.87977L24.1925 4.90155L23.953 5.16702C23.639 5.5149 23.639 5.83255 23.953 6.18043L24.1925 6.44589L30.9324 6.4676L37.6722 6.4893L38.0836 7.30073L38.4949 8.11216H21.25H4.00514L4.41718 7.29935L4.82921 6.48654H11.5192H18.2093L18.4756 6.25098C18.6959 6.05607 18.7419 5.95658 18.7419 5.67372C18.7419 5.39086 18.6959 5.29138 18.4756 5.09646L18.2093 4.86091H11.6773H5.14534L5.17129 3.48742C5.19469 2.2491 5.21341 2.09621 5.36146 1.93349C5.45178 1.83424 5.59958 1.72297 5.6899 1.68615C5.78023 1.64941 12.8276 1.62624 21.3508 1.63478L36.8475 1.6503L37.0751 1.87545ZM20.9534 4.94057C20.6949 5.04396 20.4289 5.42069 20.4289 5.6834C20.4289 6.00876 20.8063 6.39924 21.1772 6.45752C21.4272 6.49686 21.5172 6.46581 21.7501 6.25984C21.9807 6.05583 22.0264 5.9591 22.0264 5.67372C22.0264 5.39086 21.9804 5.29138 21.76 5.09646C21.4903 4.85782 21.2678 4.81482 20.9534 4.94057ZM40.6283 11.3634V12.989H21.25H1.87172V11.3634V9.73778H21.25H40.6283V11.3634ZM38.9861 25.994V37.3734H28.0663H17.1464L17.1249 27.8568L17.1034 18.3403L16.8333 18.1014L16.5633 17.8625L11.1079 17.8845L5.65254 17.9065L5.42485 18.1319L5.19723 18.3573L5.17572 27.8654L5.15421 37.3734H4.33408H3.51395V25.994V14.6147H21.25H38.9861V25.994ZM19.3112 17.9456C19.2159 17.9837 19.0588 18.1144 18.9622 18.2359L18.7867 18.4568V26.8165V35.1762L19.0263 35.4417L19.2659 35.7071L28.0149 35.7285L36.7641 35.75L37.0334 35.5117L37.3028 35.2734V26.8068V18.3403L37.0346 18.1031L36.7665 17.8659L28.1255 17.871C23.373 17.8739 19.4066 17.9074 19.3112 17.9456ZM15.5022 23.5556V27.6197H11.1503H6.79841V23.5556V19.4915H11.1503H15.5022V23.5556ZM35.7016 26.8068V34.1222H28.0653H20.4289V26.8068V19.4915H28.0653H35.7016V26.8068ZM24.2973 21.3252C24.0054 21.5683 23.8953 21.9837 24.0477 22.2669C24.1044 22.3721 24.7655 23.2081 25.5169 24.1246C26.2683 25.041 26.9073 25.8304 26.9367 25.8787C26.9663 25.9271 26.679 26.3477 26.2984 26.8134L25.6064 27.6603L24.8857 27.6611C24.0256 27.662 23.5846 27.8284 23.0565 28.3512C22.5525 28.8501 22.3619 29.3184 22.3619 30.0581C22.3619 30.7977 22.5525 31.2661 23.0565 31.765C23.5605 32.2639 24.0336 32.4526 24.7808 32.4526C25.528 32.4526 26.0012 32.2639 26.5052 31.765C27.0092 31.2661 27.1997 30.7977 27.1997 30.0581C27.1997 29.6123 27.1536 29.3489 27.0281 29.0778L26.8566 28.707L27.4218 28.0211C27.7326 27.6438 28.0158 27.3254 28.0509 27.3135C28.086 27.3015 28.374 27.6124 28.6909 28.0044L29.2671 28.717L29.0993 29.0827C28.9784 29.3465 28.9315 29.6185 28.9312 30.0581C28.9307 30.7977 29.1211 31.2658 29.6254 31.765C30.1294 32.2639 30.6025 32.4526 31.3497 32.4526C32.0969 32.4526 32.5701 32.2639 33.0741 31.765C33.5781 31.2661 33.7687 30.7977 33.7687 30.0581C33.7687 29.3184 33.5781 28.8501 33.0741 28.3512C32.5459 27.8284 32.105 27.662 31.2449 27.6611L30.5242 27.6603L29.8321 26.8134C29.4516 26.3477 29.1642 25.9271 29.1938 25.8787C29.2233 25.8304 29.8622 25.041 30.6136 24.1246C31.365 23.2081 32.0262 22.3721 32.0828 22.2669C32.2352 21.9837 32.1252 21.5683 31.8333 21.3252C31.2719 20.8576 30.9939 21.0494 29.4201 22.9899C28.6975 23.8808 28.0879 24.6098 28.0653 24.6098C28.0427 24.6098 27.433 23.8808 26.7104 22.9899C25.1367 21.0494 24.8587 20.8576 24.2973 21.3252ZM15.5022 33.3093V37.3734H11.1503H6.79841V33.3093V29.2453H11.1503H15.5022V33.3093ZM25.3537 29.5317C25.6452 29.8201 25.6359 30.3053 25.3332 30.6049C24.8374 31.0956 24.0045 30.757 24.0045 30.0646C24.0045 29.3392 24.8297 29.0133 25.3537 29.5317ZM31.9226 29.5317C32.2141 29.8201 32.2048 30.3053 31.9021 30.6049C31.4063 31.0956 30.5734 30.757 30.5734 30.0646C30.5734 29.3392 31.3986 29.0133 31.9226 29.5317Z" fill="black"/>
</svg>
