<svg width="51" height="50" viewBox="0 0 51 50" fill="none" xmlns="http://www.w3.org/2000/svg">
<path fill-rule="evenodd" clip-rule="evenodd" d="M23.6369 0.141754C21.9218 0.451622 20.4271 1.25267 19.1129 2.56638C17.7548 3.92406 16.9927 5.37864 16.6689 7.23121C15.8979 11.641 18.6734 15.9034 23.0955 17.1017C24.2288 17.4087 26.2819 17.406 27.423 17.0959C33.0567 15.5649 35.6302 9.19308 32.648 4.15939C32.1015 3.23692 30.6753 1.81125 29.7525 1.26488C27.8721 0.151621 25.7446 -0.239133 23.6369 0.141754ZM27.2328 1.7499C29.682 2.51236 31.4142 4.25434 32.1819 6.72703C32.5082 7.77787 32.5082 9.58374 32.1819 10.6346C31.415 13.1046 29.6549 14.8641 27.1839 15.6308C26.1327 15.9569 24.3262 15.9569 23.275 15.6308C20.8041 14.8641 19.044 13.1046 18.2771 10.6346C17.9508 9.58354 17.9508 7.77777 18.2772 6.72703C19.13 3.9815 21.2758 2.05029 24.0337 1.54603C24.8046 1.40506 26.4652 1.51096 27.2328 1.7499ZM26.7302 8.36332C25.4109 9.63942 24.2942 10.6834 24.2486 10.6834C24.203 10.6834 23.8092 10.3647 23.3733 9.97518C22.5644 9.25209 22.3111 9.14844 21.8958 9.37058C21.6128 9.522 21.4823 9.93093 21.6191 10.2374C21.6807 10.3752 22.2321 10.9386 22.8446 11.4894C24.3199 12.816 24.2275 12.8191 25.705 11.3942C30.6215 6.65269 30.4488 6.85716 30.0108 6.30062C29.8615 6.11072 29.7192 6.04322 29.4686 6.04322C29.1578 6.04322 28.9256 6.23996 26.7302 8.36332ZM3.26415 7.99874C2.09529 8.16911 0.944602 9.08973 0.488139 10.2197L0.261325 10.7811L0.234353 25.0865C0.217936 33.8281 0.243833 39.6546 0.301 40.0672C0.472992 41.3075 1.13839 42.24 2.28028 42.8412L2.80212 43.116L9.37397 43.1431L15.9458 43.1701V44.6176V46.0649L15.0156 47.3014L14.0855 48.5377H13.5578C12.8737 48.5377 12.7258 48.6017 12.5736 48.9633C12.4324 49.2991 12.5217 49.66 12.7981 49.8699C12.9331 49.9725 15.337 49.9975 25.3092 49.9999C33.0309 50.0019 37.7189 49.9679 37.8288 49.9091C37.9253 49.8574 38.0579 49.686 38.1232 49.5284C38.221 49.2925 38.2153 49.19 38.0914 48.9504C37.9048 48.5897 37.7734 48.5377 37.0478 48.5377H36.4712L35.5411 47.3014L34.6109 46.0649V44.6176V43.1702L41.1339 43.1431L47.6569 43.116L48.1943 42.8409C49.2964 42.2769 49.9869 41.3016 50.158 40.0672C50.2152 39.6546 50.241 33.8281 50.2246 25.0865L50.1977 10.7811L49.962 10.195C49.6373 9.38787 48.7503 8.5036 47.95 8.18904C47.3943 7.97071 47.2432 7.9584 45.0533 7.95342C42.9145 7.94853 42.7277 7.96192 42.537 8.13424C42.3983 8.25947 42.331 8.43815 42.331 8.68081C42.331 9.32535 42.3958 9.34294 44.9206 9.3827C46.9875 9.41523 47.1997 9.43486 47.5591 9.62604C48.0112 9.86665 48.2924 10.1529 48.5494 10.6346C48.7245 10.9628 48.7329 11.5055 48.7583 24.1889L48.7848 37.4012H28.953C18.0455 37.4012 9.05002 37.4286 8.96305 37.4619C8.72754 37.5523 8.50541 38.0464 8.57529 38.3244C8.70653 38.847 7.47561 38.8141 28.8359 38.8666L48.7318 38.9154L48.7037 39.5948C48.669 40.4309 48.4156 40.9349 47.8195 41.3533L47.3958 41.6507H25.2295H3.06323L2.63951 41.3533C2.0434 40.9349 1.79 40.4309 1.75531 39.5948L1.72717 38.9154L4.06812 38.8891C6.31242 38.864 6.41835 38.8543 6.63334 38.6523C6.95113 38.3539 6.93579 37.8676 6.60011 37.6037C6.356 37.4117 6.22193 37.4012 4.00841 37.4012H1.6742L1.70068 24.1889L1.72717 10.9765L1.93756 10.5857C2.18128 10.1329 2.4682 9.85209 2.9487 9.59585C3.26825 9.42548 3.66823 9.41025 9.02784 9.36462C14.621 9.31705 14.7686 9.3109 14.9125 9.1204C15.2186 8.71529 15.0442 8.19285 14.5389 8.0008C14.2261 7.88191 4.07847 7.88005 3.26415 7.99874ZM35.8902 8.00216C35.3836 8.21239 35.2385 8.77156 35.5919 9.15078C35.7856 9.35867 35.853 9.36462 38.0198 9.36462C40.0548 9.36462 40.2626 9.34909 40.4102 9.18595C40.6422 8.92972 40.6186 8.36254 40.3665 8.13424C40.1802 7.96553 39.9724 7.94609 38.1433 7.92626C36.9657 7.91356 36.0276 7.94511 35.8902 8.00216ZM11.1574 20.5175C10.653 20.6618 10.2275 21.0256 9.99031 21.5154C9.78871 21.9317 9.78148 22.0555 9.80923 24.6359L9.83816 27.323L10.1313 27.7376C10.2926 27.9657 10.6004 28.2441 10.8154 28.3563C11.1986 28.5564 11.3321 28.5609 17.567 28.5869C23.8941 28.6132 23.9289 28.6123 24.1877 28.4088C24.5129 28.1531 24.5444 27.6313 24.2523 27.3393C24.0609 27.148 23.9266 27.1439 17.8095 27.1439C12.2605 27.1439 11.5451 27.1267 11.4087 26.9905C11.1787 26.7605 11.1787 22.2522 11.4087 22.0222C11.5464 21.8846 12.6498 21.8688 22.0923 21.8688H32.6223L32.8349 21.6427C33.0971 21.3636 33.1071 20.9874 32.8605 20.6829L32.6737 20.4523L22.0865 20.436C15.2621 20.4255 11.3779 20.4545 11.1574 20.5175ZM35.1351 20.5139C34.9265 20.6186 34.7086 20.9821 34.7086 21.2252C34.7086 21.296 34.7998 21.4698 34.9112 21.6113L35.1137 21.8688H37.0052C38.5944 21.8688 38.9212 21.8933 39.0503 22.0222C39.2803 22.2522 39.2803 26.7605 39.0503 26.9905C38.9232 27.1175 38.6214 27.1439 37.3021 27.1439C35.5513 27.1439 35.3717 27.1969 35.2403 27.752C35.1896 27.9662 35.2363 28.0773 35.479 28.3199L35.7809 28.6217L37.5168 28.591C39.5146 28.5558 39.8134 28.4651 40.3277 27.7374L40.6208 27.3225V24.5063V21.6902L40.3277 21.2753C39.7994 20.5277 39.5404 20.4555 37.2983 20.4307C36.0582 20.417 35.2675 20.4474 35.1351 20.5139ZM26.4774 26.066C26.343 26.1716 26.1828 26.3805 26.1212 26.5301C26.0597 26.6796 25.9271 28.1868 25.8266 29.8792C25.6226 33.3137 25.6334 33.4188 26.2253 33.79C26.7084 34.093 27.2249 34.0053 27.9496 33.4971C28.2739 33.2697 28.5819 33.1098 28.6339 33.1419C28.6858 33.1741 29.0368 33.6532 29.4136 34.2067C30.1353 35.2664 30.364 35.4475 30.9823 35.4475C31.2835 35.4475 31.5501 35.3091 32.435 34.6936C33.0311 34.279 33.5938 33.8128 33.6854 33.6578C33.971 33.1745 33.8334 32.7443 33.0166 31.5661L32.2817 30.5059L32.9677 30.034C33.7839 29.4724 34.0102 29.0772 33.8403 28.5104C33.7822 28.3166 33.6265 28.0564 33.4943 27.9323C33.1895 27.6461 27.7148 25.8788 27.1238 25.8759C26.8696 25.8747 26.6319 25.9446 26.4774 26.066ZM29.9446 28.1984C31.0599 28.5528 31.9724 28.8676 31.9724 28.8977C31.9724 28.928 31.6813 29.1501 31.3256 29.3912C30.6616 29.8412 30.4535 30.1441 30.5654 30.497C30.6005 30.6077 30.9755 31.1977 31.3985 31.8082C31.8217 32.4187 32.1678 32.9581 32.1678 33.0069C32.1678 33.0558 31.8979 33.2789 31.5681 33.5028C31.0983 33.8216 30.9516 33.8807 30.8909 33.775C30.5358 33.1567 29.2887 31.4729 29.1138 31.3758C28.7842 31.1927 28.7351 31.2076 27.9294 31.7333C27.2382 32.1845 27.1838 32.204 27.1831 32.002C27.181 31.5196 27.3954 27.8613 27.4379 27.6512C27.4745 27.471 27.527 27.4387 27.7002 27.4899C27.8193 27.5251 28.8293 27.8439 29.9446 28.1984ZM33.145 44.8577V46.5505L33.8715 47.5197L34.5981 48.4889L29.97 48.5143C27.4246 48.5281 23.2308 48.5281 20.6504 48.5143L15.9586 48.4889L16.6852 47.5197L17.4117 46.5505V44.8577V43.1649H25.2784H33.145V44.8577Z" fill="black"/>
</svg>
