<svg width="41" height="32" viewBox="0 0 41 32" fill="none" xmlns="http://www.w3.org/2000/svg">
<path d="M26.8735 8.06051C27.3998 8.06051 27.812 7.64728 27.812 7.12037V4.44868C27.812 3.10957 26.3661 2.30926 24.9684 2.30926L18.3458 2.30896V1.41777C18.3458 0.636156 17.7165 0 16.9434 0L11.0972 0.000296856C10.3241 0.000296856 9.69478 0.636461 9.69478 1.41806V2.30926L3.07312 2.30896C1.70536 2.30896 0.229492 3.12682 0.229492 4.44838V7.12007C0.229492 7.64729 0.641769 8.06021 1.16795 8.06021H1.91703L3.87152 29.5752C3.99749 30.9571 5.14419 31.9993 6.53894 31.9993H21.5028C22.8976 31.9993 24.0443 30.957 24.1702 29.5752L26.1247 8.06097H26.8732L26.8735 8.06051ZM10.9858 1.41746C10.9858 1.35719 11.0381 1.30406 11.098 1.30406H16.9441C17.0038 1.30406 17.0563 1.3569 17.0563 1.41746V2.30865H10.9858L10.9858 1.41746ZM1.5193 4.44807C1.5193 4.02653 2.28892 3.61304 3.07297 3.61304H24.9685C25.7669 3.61304 26.5222 4.01914 26.5222 4.44807V6.75582H1.51976L1.5193 4.44807ZM22.8849 29.4558C22.8203 30.1624 22.2262 30.6949 21.5024 30.6949H6.53776C5.81393 30.6949 5.2196 30.1621 5.15526 29.4558L3.21167 8.06013H24.8291L22.8849 29.4558ZM7.00691 24.5687C7.03774 24.9041 7.31612 25.1615 7.6494 25.1615H9.92751C10.109 25.1615 10.2819 25.0843 10.4041 24.9486C10.5265 24.8136 10.5864 24.6322 10.5697 24.4496L9.44888 12.111C9.41805 11.7756 9.13967 11.5182 8.80638 11.5182H6.52828C6.3468 11.5182 6.17385 11.5954 6.0517 11.731C5.92925 11.8667 5.86934 12.0475 5.88608 12.2301L7.00691 24.5687ZM8.21756 12.8228L9.22007 23.8573H8.23786L7.23536 12.8228H8.21756ZM12.8709 25.1614H15.1399C15.4955 25.1614 15.7842 24.8705 15.785 24.5107L15.8159 12.1721C15.8162 11.9988 15.7483 11.8325 15.6274 11.7096C15.5064 11.5867 15.3419 11.5181 15.1705 11.5181H12.9014C12.5458 11.5181 12.2572 11.8091 12.2563 12.1689L12.2255 24.5074C12.2252 24.6808 12.293 24.8471 12.414 24.9699C12.535 25.0923 12.6994 25.1614 12.8709 25.1614V25.1614ZM13.5454 12.8228H14.5239L14.4962 23.8573H13.5178L13.5454 12.8228ZM17.7064 25.1614H19.9845C20.3178 25.1614 20.5967 24.9043 20.627 24.5686L21.7478 12.23C21.7645 12.0474 21.7043 11.8661 21.5822 11.731C21.4597 11.5953 21.2871 11.5181 21.1056 11.5181H18.8275C18.4942 11.5181 18.2152 11.7749 18.185 12.111L17.0642 24.4496C17.0474 24.6321 17.1076 24.8135 17.2298 24.9486C17.3519 25.0842 17.5252 25.1614 17.7064 25.1614ZM19.4159 12.8228H20.3981L19.3959 23.8566H18.4137L19.4159 12.8228ZM40.1922 31.1286L37.0828 22.288V19.641C37.0828 19.2806 36.7938 18.9888 36.4377 18.9888H34.6597V5.82108C34.6597 5.46069 34.3707 5.16889 34.0145 5.16889H31.1151C30.7587 5.16889 30.47 5.461 30.47 5.82108V18.9895H28.5217C28.1652 18.9895 27.8765 19.2816 27.8765 19.6417V22.2888L24.7675 31.1293C24.6973 31.3288 24.7273 31.5509 24.8482 31.7239C24.9692 31.8973 25.1657 32 25.3753 32H28.6817C28.9278 32 29.1521 31.8587 29.2611 31.6352L29.9737 30.1687L29.8651 31.2837C29.8472 31.4668 29.9068 31.6494 30.0292 31.786C30.1517 31.9225 30.3252 32 30.5073 32H33.2238C33.4878 32 33.7251 31.8376 33.8228 31.59L33.9473 31.2748L33.9485 31.3582C33.9541 31.7141 34.2416 31.9997 34.5937 31.9997H39.5853C39.7949 31.9997 39.9914 31.897 40.1124 31.7236C40.2322 31.5503 40.2624 31.3285 40.1922 31.129L40.1922 31.1286ZM31.7593 6.47342H33.3681V18.9891H31.7593V6.47342ZM29.1661 20.2939H35.7925V21.7488H29.1661V20.2939ZM35.2269 30.6946L35.1841 28.0087C35.1794 27.6978 34.9582 27.4342 34.6558 27.3778C34.3533 27.3214 34.0541 27.4886 33.9396 27.7768L32.785 30.6946H31.2178L31.6069 26.7114C31.6377 26.3977 31.4416 26.1064 31.1418 26.0203C30.842 25.934 30.5234 26.077 30.3856 26.36L28.2791 30.695H26.2887L28.9764 23.0536H35.9824L38.6702 30.695H35.2269L35.2269 30.6946Z" fill="black"/>
</svg>
