<svg width="42" height="39" viewBox="0 0 42 39" fill="none" xmlns="http://www.w3.org/2000/svg">
<path d="M41.2067 21.1283C41.1939 19.6406 41.168 18.1593 41.1228 16.6716C41.1162 16.3989 41.1228 16.1129 41.1293 15.8208C41.1552 14.4695 41.1811 12.943 40.0426 11.9422C38.5873 10.6625 35.987 10.7534 34.0852 10.8248L33.6906 10.8377C32.688 10.8703 31.6918 10.896 30.6891 10.9221C31.2972 5.71199 28.9944 1.69054 24.6734 0.424144C22.3059 -0.270926 19.324 -0.101946 16.892 0.859312C13.2243 2.30809 10.9604 7.05033 11.9176 11.1237C10.3327 11.1237 8.73503 11.1303 7.10488 11.1303C6.79428 11.1174 6.50989 11.1237 6.21209 11.1174C4.25199 11.0654 2.03345 11.0133 0.908053 13.3782C0.591201 14.0472 0.422942 14.7749 0.332412 15.5154C0.287146 15.5869 0.24843 15.6712 0.24843 15.7687C0.24843 15.8271 0.261235 15.8857 0.28089 15.944C0.209717 16.7692 0.229073 17.6007 0.242176 18.38C0.248728 18.6465 0.254982 18.9127 0.254982 19.1726C0.261533 20.3095 0.254982 21.4462 0.24843 22.5834C0.241879 23.3566 0.235625 24.1231 0.235625 24.8962V38.5257C0.235625 38.6555 0.287442 38.7724 0.377973 38.8636C0.468503 38.9545 0.584938 39 0.714485 39C4.51141 38.9806 9.27196 38.9611 14.1686 38.9417H14.1814C26.6269 38.8896 39.9453 38.8376 40.5986 38.8573C40.6505 38.8639 40.7023 38.8573 40.7538 38.8508C40.9673 38.7987 41.1159 38.6103 41.1225 38.3961C41.2326 32.302 41.252 26.6632 41.2067 21.1283L41.2067 21.1283ZM17.2344 1.73651C19.4788 0.853021 22.2281 0.69721 24.4015 1.33365C28.302 2.47049 30.3008 6.01762 29.738 10.8056C29.7314 10.851 29.7445 10.8899 29.7508 10.9354C24.246 11.0589 18.7088 11.1044 12.8805 11.1172C11.891 7.42745 13.9157 3.04874 17.234 1.7364L17.2344 1.73651ZM1.76155 13.781C2.48609 12.2545 3.76693 12.0464 5.2934 12.0464C5.58435 12.0464 5.87559 12.053 6.17964 12.0592C6.4837 12.0658 6.80055 12.0853 7.09806 12.0721C16.5612 12.0721 25.0935 12.0527 33.7097 11.7862L34.1108 11.7733C35.7538 11.715 38.2377 11.6238 39.4086 12.6568C40.1007 13.2675 40.185 14.2614 40.1784 15.2812L1.3218 15.2818C1.40578 14.7554 1.54157 14.2488 1.76164 13.781L1.76155 13.781ZM36.2125 30.5811C35.7468 31.5035 34.9901 32.1207 34.1298 32.2831C33.3213 32.4327 32.4868 32.1596 31.7816 31.5165C30.5073 30.3472 30.5008 28.0603 30.4942 26.2153C30.4942 25.9099 30.4942 25.6177 30.4877 25.3384C30.4552 23.8962 30.41 22.2916 30.3712 20.6804C30.3325 19.1474 30.2873 17.6142 30.2548 16.2304H36.7364C36.8659 20.7131 36.8466 29.3139 36.2125 30.5811H36.2125ZM10.332 30.5811C9.86623 31.5035 9.10954 32.1207 8.24922 32.2831C7.43418 32.4327 6.60626 32.1596 5.90108 31.5165C4.6268 30.3472 4.62024 28.0603 4.61368 26.2153C4.61368 25.9099 4.61368 25.6177 4.60713 25.3384C4.57467 23.8896 4.52941 22.2722 4.48414 20.6544C4.44543 19.1278 4.40016 17.6076 4.36771 16.2304H10.8493C10.9854 20.7131 10.9726 29.3139 10.332 30.5811H10.332ZM14.6206 37.8246C14.446 34.1411 14.2194 29.5547 15.4678 26.378C16.2245 24.442 17.7965 22.5127 20.0669 22.3568V37.7924C20.0669 37.8507 20.0797 37.9028 20.0994 37.9548C18.2494 37.9614 16.4058 37.9677 14.6271 37.9808L14.6206 37.8246ZM26.4905 37.6233L26.4839 37.9221C24.6986 37.9286 22.8421 37.9349 20.9792 37.9415C20.9985 37.8895 21.0116 37.8374 21.0116 37.7791V22.3825C21.031 22.3825 21.0441 22.3825 21.0634 22.3891C26.8333 23.2789 26.6004 32.972 26.4905 37.6234L26.4905 37.6233ZM40.1908 37.9155C39.3758 37.8829 37.7456 37.8895 34.4079 37.896C32.3832 37.9026 29.9898 37.9089 27.435 37.9221L27.4416 37.6493C27.558 32.7186 27.8037 22.4671 21.2123 21.4534C17.8487 20.9336 15.5849 23.4737 14.5884 26.0269C13.2688 29.3985 13.4952 34.0954 13.6762 37.8701L13.6828 37.9805C7.72532 38.0065 2.71853 38.0325 1.19838 38.0388L1.19868 24.8833C1.19868 24.1167 1.20523 23.3436 1.21149 22.5771C1.21804 21.4336 1.22429 20.2969 1.21804 19.1534C1.21804 18.8869 1.21149 18.6208 1.20523 18.348C1.19243 17.6397 1.17933 16.9318 1.21804 16.2367H3.4304C3.46286 17.6206 3.50158 19.1537 3.54684 20.6868C3.5921 22.3046 3.63737 23.9154 3.66327 25.3642C3.66983 25.637 3.66983 25.9229 3.66983 26.2217C3.67638 28.2486 3.68263 30.7758 5.2675 32.2242C6.0242 32.9127 6.91046 33.2767 7.80951 33.2767C8.01647 33.2767 8.22345 33.2573 8.42416 33.2184C9.57547 33.0039 10.5847 32.1985 11.1797 31.0096C12.1047 29.1711 11.8459 17.874 11.8072 16.2302H29.3048C29.3373 17.6269 29.376 19.1666 29.4212 20.7063C29.4665 22.3109 29.5052 23.9154 29.5377 25.3576C29.5442 25.6304 29.5442 25.9163 29.5442 26.2151C29.5508 28.242 29.557 30.7692 31.1419 32.2177C31.8986 32.9062 32.7849 33.2702 33.6839 33.2702C33.8909 33.2702 34.0979 33.2507 34.3048 33.2118C35.4561 32.9974 36.4588 32.192 37.0604 31.0031C37.9853 29.1646 37.7265 17.8675 37.6878 16.2236H40.1845C40.1845 16.3794 40.178 16.5356 40.1845 16.6848C40.2233 18.1659 40.2492 19.6472 40.2623 21.122C40.3075 26.5268 40.2819 32.0165 40.1911 37.9151L40.1908 37.9155Z" fill="black"/>
<path d="M26.5101 5.19902C26.4389 4.14655 26.1801 3.03574 25.3392 2.568C25.0027 2.37958 24.6471 2.36672 24.3365 2.51596C23.7284 2.82133 23.5149 3.6528 23.4437 4.12713C23.4113 4.32213 23.3791 4.69868 23.3532 5.16643L19.0518 5.16673C18.9807 4.12743 18.7153 3.02948 17.8809 2.56825C17.5444 2.37983 17.1888 2.36696 16.8783 2.5162C16.2702 2.82157 16.0567 3.65305 15.9855 4.12737C15.953 4.32866 15.9208 4.71208 15.8949 5.18643C15.8497 5.17985 15.811 5.17357 15.7657 5.17357C15.4357 5.17357 15.1254 5.30995 14.9054 5.55042C14.4849 6.00503 14.4396 6.77815 14.7955 7.29795C15.0412 7.65536 15.4295 7.84378 15.8303 7.84378C15.8821 7.84378 15.9339 7.83092 15.9855 7.82434C16.0048 7.98674 16.0307 8.14256 16.0566 8.29869C16.2377 9.23424 16.5549 9.8058 17.0269 10.0528C17.1499 10.1177 17.3244 10.1763 17.5314 10.1763C17.6996 10.1763 17.8872 10.1437 18.1004 10.0465C18.7407 9.75432 18.9673 8.90309 19.0385 7.85062H23.4435C23.4629 8.00645 23.4822 8.15599 23.5147 8.30523C23.6957 9.24079 24.0129 9.81235 24.4849 10.0593C24.6079 10.1243 24.7824 10.1829 24.9894 10.1829C25.1577 10.1829 25.3453 10.1503 25.5585 10.0531C26.244 9.74113 26.4575 8.79272 26.5159 7.62992C26.6065 7.64936 26.697 7.66252 26.7875 7.66252C27.0916 7.66252 27.4022 7.55216 27.6347 7.33114C28.0746 6.90225 28.1264 6.15517 27.7512 5.66791C27.4546 5.29644 26.9632 5.12746 26.5103 5.19894L26.5101 5.19902ZM15.5718 6.76471C15.4681 6.61517 15.4812 6.32954 15.5977 6.19944C15.6364 6.15398 15.7013 6.12796 15.7659 6.12796C15.7918 6.12796 15.8306 6.14082 15.8758 6.16056C15.8758 6.39445 15.8824 6.63491 15.8952 6.88166C15.7853 6.92054 15.6495 6.87508 15.5718 6.76472L15.5718 6.76471ZM18.1269 6.43333C18.1334 8.12887 17.9911 9.05149 17.7064 9.18135C17.5447 9.25283 17.4801 9.22023 17.4607 9.21395C17.3184 9.14246 17.1242 8.81766 16.9884 8.12258C16.7362 6.82334 16.8267 4.94572 16.9238 4.2701C17.0078 3.70484 17.1954 3.41923 17.299 3.36717C17.3249 3.35431 17.3636 3.36717 17.4283 3.39977C17.7582 3.58161 18.1463 4.19237 18.1334 6.08285V6.43338L18.1269 6.43333ZM19.0715 6.9011V6.43333V6.12139H23.3279C23.3279 6.37471 23.3345 6.63461 23.3473 6.90113L19.0715 6.9011ZM25.5852 6.43333C25.5918 8.12887 25.4494 9.05149 25.1647 9.18135C25.003 9.2594 24.9384 9.22023 24.9125 9.21395C24.7701 9.14246 24.576 8.81766 24.4402 8.12258C24.1879 6.82334 24.2785 4.94572 24.3756 4.2701C24.4595 3.70484 24.6471 3.41923 24.7508 3.36717C24.7767 3.35431 24.8154 3.36717 24.88 3.39977C25.21 3.58161 25.598 4.19237 25.5852 6.08285L25.5852 6.43333ZM26.9693 6.64777C26.8788 6.73212 26.6912 6.7387 26.6072 6.65435C26.5813 6.63491 26.5554 6.62175 26.5295 6.60231V6.43333V6.18001C26.5423 6.17343 26.5554 6.17343 26.5682 6.16715C26.6975 6.09567 26.8982 6.14113 26.9887 6.25149C27.0795 6.35558 27.0664 6.55027 26.9693 6.64778V6.64777Z" fill="black"/>
<path d="M8.1783 23.0317C9.21968 21.2192 10.0089 19.7118 9.85373 19.608C9.69858 19.5039 8.6441 20.8618 7.59616 22.694C6.54167 24.5259 5.90144 26.1176 6.06969 26.2019C6.2314 26.2863 7.13699 24.8441 8.17838 23.0317H8.1783Z" fill="black"/>
<path d="M8.56639 24.8248C7.99075 25.7538 7.65423 26.5918 7.81594 26.6893C7.97764 26.7868 8.56639 26.1112 9.14206 25.1822C9.71773 24.2532 10.0542 23.4153 9.89251 23.3177C9.73081 23.2202 9.14237 23.8958 8.56639 24.8248Z" fill="black"/>
<path d="M34.1686 24.1879C35.1972 22.6613 35.6823 21.2385 35.5206 21.1671C35.3461 21.0828 34.6022 22.3365 33.6061 23.8113C32.6165 25.2924 31.743 26.4555 31.8854 26.5853C32.0147 26.7022 33.1466 25.7146 34.1686 24.1879V24.1879Z" fill="black"/>
<path d="M34.1816 26.0139C33.664 26.7221 33.3084 27.3523 33.4508 27.4755C33.5866 27.5991 34.1881 27.1507 34.7251 26.4165C35.262 25.6825 35.5142 24.9743 35.3525 24.8768C35.1974 24.7796 34.6991 25.3057 34.1816 26.014L34.1816 26.0139Z" fill="black"/>
<path d="M14.0326 6.86874C13.929 6.81042 13.4698 7.60269 13.4957 8.68779C13.515 9.77916 14.0002 10.5457 14.1038 10.4874C14.2268 10.4353 13.9614 9.65596 13.9486 8.68151C13.9227 7.70025 14.1556 6.91422 14.0326 6.86874V6.86874Z" fill="black"/>
<path d="M17.3052 4.65346C17.3505 4.98485 17.4928 5.2642 17.687 5.27077C17.8746 5.27735 18.0363 4.95883 17.9779 4.56254C17.9195 4.16625 17.6804 3.89978 17.5056 3.95839C17.3245 4.01014 17.2599 4.3155 17.3052 4.65346Z" fill="black"/>
<path d="M36.3483 13.1119C36.9758 13.1053 37.5062 13.073 37.8748 13.2028C38.25 13.3132 38.4764 13.4367 38.5151 13.3781C38.5538 13.3326 38.3858 13.1053 37.9912 12.9037C37.7971 12.8062 37.5386 12.7087 37.2474 12.6827C36.9692 12.6698 36.6392 12.6372 36.3289 12.6567C35.0675 12.6893 34.052 12.8191 34.052 12.9426C34.052 13.0664 35.0868 13.1442 36.3483 13.1119L36.3483 13.1119Z" fill="black"/>
</svg>
