<svg width="50" height="50" viewBox="0 0 50 50" fill="none" xmlns="http://www.w3.org/2000/svg">
<path fill-rule="evenodd" clip-rule="evenodd" d="M22.6603 0.0586755C17.795 0.529334 12.9726 2.50737 9.19115 5.58338C8.07887 6.4882 6.31777 8.2631 5.43067 9.3736C3.18761 12.1813 1.3495 15.9792 0.587163 19.3807C0.108429 21.5174 0 22.556 0 25.0071C0 27.4581 0.108429 28.4968 0.587163 30.6334C1.36613 34.1092 3.2522 37.9613 5.56982 40.8098C6.47474 41.922 8.24983 43.6829 9.36045 44.5699C12.1685 46.8127 15.9667 48.6507 19.3686 49.4129C21.5055 49.8916 22.5443 50 24.9956 50C27.4469 50 28.4857 49.8916 30.6226 49.4129C33.1804 48.8398 36.5247 47.4108 38.7225 45.952C42.5342 43.4216 45.4616 40.0925 47.4604 36.0152C48.6848 33.5176 49.3802 31.2807 49.8182 28.4318C50.0606 26.8555 50.0606 23.1587 49.8182 21.5823C49.3802 18.7334 48.6848 16.4966 47.4604 13.999C46.1539 11.3337 44.6976 9.30608 42.595 7.22511C40.5308 5.182 38.6398 3.8394 36.0049 2.54602C33.5368 1.33444 31.2518 0.619943 28.5186 0.204961C27.2895 0.0183613 23.941 -0.0653004 22.6603 0.0586755ZM28.1271 2.46314C33.0973 3.18498 37.5897 5.423 41.0857 8.91869C44.5926 12.4251 46.7657 16.7913 47.5591 21.9248C47.6752 22.6763 47.7255 23.6066 47.7255 25.0071C47.7255 28.7083 46.9985 31.8383 45.3802 35.1053C42.022 41.8848 35.7852 46.3773 28.0782 47.5681C26.6002 47.7965 23.391 47.7965 21.913 47.5681C16.779 46.7749 12.4123 44.602 8.90549 41.0955C5.39857 37.589 3.22548 33.2229 2.43213 28.0894C2.20372 26.6115 2.20372 23.4026 2.43213 21.9248C2.83551 19.3151 3.51965 17.1122 4.61099 14.9089C7.90918 8.25067 14.1017 3.71826 21.5674 2.49827C23.455 2.18985 26.1463 2.17536 28.1271 2.46314ZM26.4751 12.6233C25.5557 12.9224 24.671 13.7582 24.4085 14.5754C24.1014 15.5322 24.459 16.7737 25.2393 17.4586C26.9593 18.9687 29.8522 18.323 30.5318 16.2772C31.1433 14.4364 29.7394 12.6027 27.6514 12.5152C27.1867 12.4957 26.7416 12.5366 26.4751 12.6233ZM23.239 21.003C22.5695 21.1212 19.8952 22.0369 19.752 22.1971C19.6418 22.3203 19.2869 23.5391 19.3445 23.5968C19.3624 23.6147 19.6614 23.54 20.0089 23.431C21.3731 23.0028 22.6452 23.2013 22.9754 23.8936C23.3262 24.6292 23.1562 25.6528 22.0646 29.3802C21.2212 32.2599 21.0744 32.9431 21.0592 34.0582C21.0493 34.7786 21.0877 35.0317 21.2704 35.449C21.5587 36.1075 22.2735 36.774 23.1129 37.1668C23.7044 37.4436 23.882 37.478 24.9119 37.5146C26.2838 37.5636 26.9352 37.4373 28.7632 36.7686L30.0354 36.3033L30.2244 35.6469C30.3283 35.2859 30.3902 34.9674 30.362 34.9391C30.3337 34.911 30.1165 34.9605 29.8794 35.0493C29.2451 35.2869 27.5987 35.2912 27.1687 35.0564C26.1469 34.4986 26.2099 33.5577 27.5838 28.8507C28.4426 25.9084 28.5189 25.5489 28.5279 24.401C28.5406 22.771 28.0123 21.9262 26.5614 21.2569C25.9958 20.996 25.8058 20.9604 24.8488 20.9361C24.2568 20.9211 23.5324 20.9512 23.239 21.003Z" fill="black"/>
</svg>
