<svg width="50" height="49" viewBox="0 0 50 49" fill="none" xmlns="http://www.w3.org/2000/svg">
<path fill-rule="evenodd" clip-rule="evenodd" d="M23.5347 0.0319793C22.7425 0.130418 21.2406 0.462025 20.5339 0.694427C19.5399 1.02134 18.0426 1.7604 17.105 2.38694C16.0992 3.05906 14.1329 5.00005 13.4883 5.95715C12.4758 7.46053 11.7331 9.18531 11.3507 10.9213C11.1063 12.0305 11.1063 15.2049 11.3507 16.3141C11.7941 18.3272 12.3849 19.5983 14.1452 22.3267C14.854 23.4253 15.4208 24.3623 15.405 24.4089C15.3891 24.4555 13.5966 25.477 11.4215 26.6787L7.46683 28.8636L3.73624 38.477C1.68453 43.7643 0.00321448 48.1892 8.8809e-05 48.3101C-0.00694395 48.5871 0.405254 49 0.688811 49C0.807 49 1.19361 48.8421 1.54798 48.6491C3.00034 47.8581 12.2754 42.739 12.554 42.5747L12.855 42.3971L18.8304 45.6986C22.1169 47.5143 24.8937 49 25.0012 49C25.1085 49 27.863 47.5277 31.1222 45.7283C34.3814 43.9289 37.0954 42.4575 37.1532 42.4586C37.211 42.4597 39.8953 43.9194 43.118 45.7024C46.3409 47.4854 49.0964 48.9612 49.2415 48.9821C49.5656 49.0287 50.0079 48.6368 49.9999 48.3101C49.9969 48.1892 48.3156 43.763 46.2637 38.4743L42.533 28.8582L38.5773 26.6731C36.4018 25.4713 34.6092 24.4511 34.5938 24.406C34.5785 24.361 35.1458 23.4253 35.8546 22.3267C37.6149 19.5983 38.2057 18.3272 38.6491 16.3141C38.8939 15.2032 38.8935 12.0306 38.6484 10.9181C38.273 9.21318 37.5075 7.43602 36.5114 5.95715C35.8066 4.91052 33.8774 3.03205 32.7652 2.30928C31.2095 1.29837 29.5535 0.612651 27.7837 0.246667C26.9236 0.0688458 24.3034 -0.0635863 23.5347 0.0319793ZM27.6372 1.6858C31.9659 2.65324 35.4102 5.69831 36.8106 9.79596C37.2278 11.0168 37.4049 12.1556 37.4049 13.6177C37.4049 15.6144 37.0294 17.2641 36.1953 18.9322C35.7441 19.8346 25.8999 35.1998 25.505 35.6179C25.2387 35.8999 24.8659 35.9575 24.5984 35.7577C24.3825 35.5965 14.3033 19.9212 13.8411 19.028C13.0142 17.4292 12.5949 15.609 12.5949 13.6177C12.5949 11.0672 13.2663 8.88894 14.7136 6.74408C15.3834 5.75146 17.0516 4.14619 18.1411 3.44591C19.6448 2.47944 21.6165 1.74689 23.369 1.50338C24.3188 1.37143 26.6826 1.47245 27.6372 1.6858ZM23.7136 5.8092C22.351 6.05415 21.0331 6.63999 19.9631 7.47643C18.5061 8.61527 17.4191 10.361 17.0969 12.0793C16.96 12.8093 16.96 14.4261 17.0969 15.1562C17.3217 16.3548 18.0131 17.7347 18.9267 18.8078C19.8001 19.8338 21.5532 20.8903 23.0463 21.2906C24.0207 21.5518 26.0786 21.5316 27.079 21.2509C30.6739 20.2426 33.0081 17.2374 33.0081 13.6177C33.0081 10.02 30.6675 6.98701 27.1307 6.00158C26.3293 5.77827 24.4683 5.67351 23.7136 5.8092ZM26.9046 7.44177C28.5777 7.95091 30.1078 9.21509 30.8446 10.6971C31.3832 11.7803 31.5443 12.4528 31.5443 13.6177C31.5443 14.7826 31.3832 15.4551 30.8446 16.5383C30.5253 17.1807 30.2732 17.5155 29.649 18.1267C28.2667 19.4804 26.919 20.0329 24.9999 20.0329C23.0808 20.0329 21.7331 19.4804 20.3507 18.1267C19.0545 16.8574 18.4555 15.4324 18.4555 13.6177C18.4555 12.4554 18.6172 11.7781 19.1482 10.7145C19.8149 9.3796 21.1897 8.12748 22.5349 7.62993C23.958 7.10365 25.5658 7.03441 26.9046 7.44177ZM23.8065 8.73918C22.104 9.14375 20.6239 10.4963 20.1146 12.1127C19.8505 12.9508 19.8505 14.2847 20.1146 15.1227C20.631 16.7616 22.1093 18.0982 23.8512 18.5008C26.4105 19.0924 29.1108 17.5806 29.8852 15.1227C30.1492 14.2847 30.1492 12.9508 29.8852 12.1127C29.1081 9.64638 26.3739 8.12892 23.8065 8.73918ZM26.0885 10.2188C27.6482 10.7011 28.6139 12.0009 28.6139 13.6177C28.6139 15.2346 27.6482 16.5344 26.0885 17.0166C25.3029 17.2596 24.6969 17.2596 23.9113 17.0166C22.7946 16.6714 21.9959 15.9233 21.5751 14.8286C21.2775 14.0545 21.3377 12.7742 21.7044 12.0754C22.2011 11.1288 22.9221 10.5204 23.9166 10.2084C24.6401 9.98144 25.3316 9.98479 26.0885 10.2188ZM14.844 28.9828C14.5203 30.4734 14.2554 31.7539 14.2554 31.8284C14.2554 32.0487 14.7153 32.434 14.9781 32.434C15.1118 32.434 15.3297 32.3371 15.4622 32.2186C15.6725 32.0306 15.7754 31.6646 16.2706 29.3458C16.5827 27.8844 16.8633 26.6886 16.8943 26.6886C16.9253 26.6886 18.3963 28.9359 20.1631 31.6826C23.02 36.124 23.4217 36.7042 23.7939 36.9253L24.2123 37.174L24.2153 42.084L24.2185 46.994L23.901 46.8332C23.6076 46.6846 13.7354 41.2396 13.7043 41.2094C13.6967 41.2019 14.0197 39.6876 14.4221 37.8443C15.0798 34.832 15.1402 34.4687 15.0191 34.2547C14.8243 33.9105 14.4901 33.7712 14.1435 33.8896C13.9879 33.9428 13.8224 34.0572 13.7758 34.1438C13.7292 34.2304 13.3755 35.7664 12.9898 37.557C12.6041 39.3477 12.2685 40.8819 12.2442 40.9665C12.2034 41.1082 2.27069 46.6742 2.20212 46.5939C2.18532 46.5743 3.62675 42.803 5.40525 38.2132L8.63896 29.8684L12.0088 28.0043C13.8622 26.9789 15.3908 26.17 15.4056 26.2064C15.4205 26.2429 15.1678 27.4923 14.844 28.9828ZM38.1863 28.1137L41.3608 29.8633L44.5946 38.2107C46.3732 42.8018 47.816 46.5728 47.801 46.5908C47.7858 46.6088 45.5274 45.3842 42.7823 43.8695C39.1048 41.8404 37.7783 41.0632 37.7428 40.9163C37.5821 40.2537 34.5723 26.2773 34.5723 26.1939C34.5723 26.132 34.6585 26.1454 34.792 26.2281C34.913 26.303 36.4403 27.1516 38.1863 28.1137ZM34.7102 33.8464C35.5625 37.7833 36.2766 41.0483 36.297 41.1021C36.3245 41.1742 26.3666 46.7776 25.8635 46.9731C25.8182 46.9907 25.7827 44.7931 25.7844 42.0895L25.7875 37.174L26.2057 36.9255C26.5776 36.7045 26.9797 36.1237 29.8357 31.6828C31.6022 28.936 33.0729 26.6886 33.104 26.6886C33.135 26.6886 33.8578 29.9096 34.7102 33.8464Z" fill="black"/>
</svg>
