<svg width="31" height="42" viewBox="0 0 31 42" fill="none" xmlns="http://www.w3.org/2000/svg">
<path d="M19.743 24.0281H19.5156V22.7239C19.5629 22.7243 19.6115 22.7265 19.6581 22.7265C23.82 22.7265 25.8624 20.7676 25.9507 20.6808C26.0755 20.5582 26.1312 20.3806 26.0982 20.2085C26.0649 20.036 25.9488 19.8914 25.7874 19.8229C23.9317 19.0383 23.1178 15.7444 23.1094 15.7115C23.1013 15.6786 23.0816 15.6526 23.0684 15.6229C23.3119 14.8606 23.4462 14.055 23.4642 13.2258C24.1408 13.0463 24.6436 12.4341 24.6436 11.7018V10.5034C24.6436 9.89491 24.2946 9.37246 23.7901 9.10728C23.6469 5.28651 21.1073 2.05964 17.47 1.07881C17.4136 0.479068 16.916 0.0078125 16.306 0.0078125H13.7906C13.1963 0.0078125 12.7093 0.454875 12.631 1.03157C8.98962 2.02196 6.44859 5.26496 6.30649 9.10728C5.80194 9.37237 5.45337 9.89523 5.45337 10.5031V11.7015C5.45337 12.4338 5.95572 13.0452 6.6316 13.2254C6.65064 14.103 6.80076 14.9539 7.07207 15.7554C6.96881 16.1487 6.14096 19.0874 4.39626 19.823C4.23405 19.8918 4.11688 20.0361 4.0843 20.2082C4.05171 20.381 4.107 20.559 4.23296 20.6813C4.3212 20.7684 6.36943 22.7262 10.545 22.7262C10.5849 22.7262 10.627 22.724 10.6669 22.7236V24.0274H10.4879C4.70459 24.0274 0 29.2293 0 35.6232V41.475C0 41.7654 0.235066 42.0001 0.525059 42.0001H29.7043C29.994 42.0001 30.2294 41.7654 30.2294 41.475L30.229 35.6203C30.2279 29.2281 25.5247 24.0273 19.743 24.0273L19.743 24.0281ZM21.353 25.2426C20.8502 29.6235 22.2947 31.5802 23.6216 32.7918C24.4831 33.5787 24.7889 34.8155 24.7889 35.6357V40.9507H15.5839V32.1474C15.5839 31.4891 15.9289 30.8956 16.4627 30.6345C18.4102 29.6829 19.62 27.0224 19.6391 25.0778H19.743C20.293 25.0778 20.829 25.1416 21.353 25.2426L21.353 25.2426ZM7.68379 13.2841H22.4112C22.3116 16.3806 20.3084 19.086 17.3822 20.0516C14.9002 20.715 12.7553 20.0647 12.742 20.0611C9.78727 19.0857 7.78334 16.3802 7.68333 13.284L7.68379 13.2841ZM15.0584 30.5086C14.8116 30.1637 14.4909 29.877 14.1078 29.6913C12.7758 29.0447 11.6396 27.1118 11.5133 25.351C12.6282 25.9793 13.8603 26.2975 15.0938 26.2975C16.2911 26.2975 17.4869 25.9977 18.5752 25.4063C18.4302 27.1529 17.3116 29.0524 16.0027 29.6917C15.6215 29.8777 15.3037 30.1637 15.0584 30.5086V30.5086ZM12.4206 21.0602C12.4858 21.0807 13.526 21.3993 15.0353 21.3993C15.8159 21.3993 16.7218 21.3136 17.6826 21.0577C17.9517 20.9691 18.2116 20.8636 18.4661 20.7501V24.2582L18.338 24.3358C16.3476 25.5448 13.8714 25.5503 11.8755 24.3516L11.7166 24.256V20.7897C11.9458 20.889 12.1798 20.9809 12.4207 21.0603L12.4206 21.0602ZM13.6494 30.6361C14.1869 30.8975 14.5347 31.4906 14.5347 32.1483L14.5351 40.9515H5.12423V35.6369C5.12423 34.8164 5.4296 33.5792 6.29112 32.7931C7.6122 31.587 9.0497 29.6405 8.56566 25.2995C9.17566 25.1578 9.80651 25.0831 10.4528 25.0806C10.4726 27.0255 11.69 29.6849 13.6493 30.6362L13.6494 30.6361ZM24.6425 20.3638C23.8292 20.8892 22.1285 21.6907 19.5157 21.6673V20.1979C20.7555 19.4231 21.7565 18.3419 22.4437 17.0768C22.8227 18.0841 23.5236 19.5271 24.6425 20.3637V20.3638ZM22.7323 8.92173H18.1881C18.2756 8.62991 18.3239 8.32125 18.3239 8.00087C18.3239 7.16825 18.0028 6.41105 17.481 5.83984V2.16961C20.4501 3.09669 22.524 5.7611 22.7323 8.92171V8.92173ZM12.953 8.0016C12.953 6.8094 13.9226 5.84057 15.1141 5.84057C16.3055 5.84057 17.2751 6.81015 17.2751 8.0016C17.2751 9.19305 16.3055 10.1623 15.1141 10.1623C13.9226 10.1623 12.953 9.19267 12.953 8.0016ZM13.7908 1.05913H16.3062C16.3754 1.05913 16.4322 1.11844 16.4322 1.19131V5.07685C16.0294 4.89487 15.5845 4.79089 15.1141 4.79089C14.5927 4.79089 14.1017 4.91831 13.6652 5.13983V1.1913C13.6652 1.11844 13.7216 1.05912 13.7908 1.05912L13.7908 1.05913ZM12.6155 2.1246V5.98961C12.1709 6.54066 11.9033 7.24001 11.9033 8.0016C11.9033 8.32162 11.9516 8.63027 12.0391 8.92246H7.36379C7.57177 5.74245 9.64451 3.06158 12.6154 2.12461L12.6155 2.1246ZM6.50299 10.5042C6.50299 10.2102 6.74172 9.97145 7.03573 9.97145H12.5847C13.1727 10.7246 14.0866 11.2113 15.1143 11.2113C16.1421 11.2113 17.0553 10.7243 17.644 9.97145H23.0623C23.3563 9.97145 23.5951 10.2102 23.5951 10.5042V11.7026C23.5951 11.9966 23.3563 12.2353 23.0623 12.2353H7.03667C6.74265 12.2353 6.50392 11.9966 6.50392 11.7026L6.50319 10.5042H6.50299ZM5.5455 20.3612C6.63 19.5509 7.32025 18.1764 7.70793 17.1772C8.40911 18.4265 9.42007 19.4894 10.6664 20.2481V21.668C8.07181 21.6914 6.36595 20.8844 5.5454 20.3612H5.5455ZM1.04919 35.6257C1.04919 30.96 3.77768 26.9982 7.54315 25.6122C7.91149 29.3454 6.70064 30.9982 5.58355 32.0187C4.14755 33.3298 4.07425 35.2638 4.07425 35.638L4.07462 40.9523H1.04918L1.04919 35.6257ZM29.1786 40.9521H25.839V35.6375C25.839 35.2633 25.7662 33.33 24.3297 32.0181C23.2024 30.9882 21.9791 29.3137 22.3811 25.5062C26.3025 26.7854 29.1786 30.8317 29.1786 35.6219L29.179 40.9523L29.1786 40.9521Z" fill="black"/>
<path d="M20.1537 39.1371C21.5615 39.1371 22.7068 37.9917 22.7068 36.5843C22.7068 35.3387 20.9166 33.1114 20.5582 32.6775C20.3587 32.4362 19.9489 32.437 19.7494 32.6775C19.3902 33.1118 17.6008 35.3387 17.6008 36.5843C17.6012 37.9918 18.7458 39.1371 20.1536 39.1371H20.1537ZM20.1537 33.8587C20.8739 34.81 21.6571 36.0472 21.6571 36.584C21.6571 37.4129 20.9826 38.0866 20.1537 38.0866C19.3247 38.0866 18.651 37.4125 18.651 36.584C18.651 36.0472 19.4342 34.81 20.1537 33.8587Z" fill="black"/>
</svg>
