<svg width="50" height="50" viewBox="0 0 50 50" fill="none" xmlns="http://www.w3.org/2000/svg">
<path fill-rule="evenodd" clip-rule="evenodd" d="M1.46632 0.128301C0.994068 0.27779 0.236957 1.0554 0.106455 1.52506C0.040666 1.76164 0.000879792 3.15586 0.000586528 5.23504C0 8.45759 0.0066473 8.57447 0.202645 8.82336C0.48281 9.17916 0.98351 9.17916 1.26367 8.82336C1.45967 8.57457 1.46632 8.45691 1.46632 5.25505V1.94394L1.70631 1.70433L1.9462 1.46462H14.0723H26.1983L26.1988 5.05294C26.1991 7.2814 26.2386 8.78264 26.3031 9.01434C26.4356 9.49093 27.0151 10.1344 27.5179 10.3631C27.8739 10.525 28.2404 10.5412 31.5992 10.5431L35.2894 10.5453V12.8015C35.2894 14.9101 35.2783 15.0534 35.1184 14.992C34.6597 14.8161 33.4881 14.5296 32.6989 14.4004C31.9697 14.281 30.3024 14.2563 22.9551 14.256L14.0909 14.2556L13.8883 14.5129C13.6357 14.8337 13.6304 15.1423 13.8725 15.4409L14.0593 15.6714L19.3203 15.7202L24.5814 15.7691L23.8991 16.1749C23.5238 16.3982 22.8982 16.8485 22.5088 17.1757L21.8009 17.7707H18.0806C15.0066 17.7707 14.3122 17.7955 14.0837 17.9136C13.6231 18.1515 13.5419 18.6759 13.9119 19.0231C14.1345 19.2319 14.1883 19.2353 17.2963 19.2353H20.4546L20.2979 19.455C19.3918 20.7255 18.5735 22.4395 18.2234 23.8001L18.0413 24.508H16.1034C14.1763 24.508 14.1643 24.5093 13.9256 24.7477C13.6198 25.0531 13.6198 25.4275 13.9256 25.7329C14.1631 25.9701 14.184 25.9726 15.9785 25.9726H17.7914V27.0466V28.1207H15.9412H14.0909L13.8883 28.378C13.6357 28.6986 13.6304 29.0073 13.8724 29.306C14.0548 29.5313 14.1037 29.5376 16.0432 29.5853L18.0273 29.6341L18.1067 30.0247C18.363 31.2855 19.1487 33.0942 19.9729 34.3209L20.4322 35.0044L17.2837 35.0302C14.2097 35.0554 14.1299 35.0609 13.9104 35.2669C13.5419 35.6128 13.6239 36.1375 14.0837 36.375C14.3123 36.493 15.0106 36.5178 18.1135 36.5178C21.7954 36.5178 21.8703 36.5218 22.0515 36.7217C22.3254 37.0241 23.5305 37.9093 24.1454 38.26L24.6831 38.5665L19.4243 38.5674L14.1655 38.5683L13.9256 38.808C13.6324 39.1008 13.6195 39.4344 13.8883 39.7756L14.0909 40.0329H22.8746C28.6378 40.0329 31.9197 39.9966 32.4185 39.9274C33.0621 39.8379 34.2118 39.5648 35.0695 39.2976L35.2894 39.2291V43.6387V48.0484L35.0495 48.288L34.8096 48.5277H18.3779H1.9462L1.70631 48.288L1.46632 48.0484V29.5517C1.46632 11.6251 1.46065 11.0481 1.28342 10.8295C1.02926 10.516 0.437061 10.516 0.182899 10.8295C0.00566978 11.0481 0 11.6253 0 29.5604C0 43.8569 0.0271758 48.1571 0.119456 48.4676C0.276646 48.996 0.997489 49.716 1.52654 49.873C2.06429 50.0325 34.6497 50.0466 35.2231 49.8877C35.4285 49.8307 35.7723 49.6255 35.987 49.4318C36.741 48.7513 36.7012 49.0582 36.7558 43.5059L36.8046 38.5331L37.2858 38.2508L37.7668 37.9685L38.6404 38.841C39.4189 39.6185 39.5022 39.7355 39.4057 39.9157C39.1162 40.4561 39.1727 40.5337 41.7168 43.0836C43.0476 44.4174 44.3562 45.6601 44.625 45.845C46.37 47.0457 48.8416 46.3696 49.739 44.4459C49.9589 43.9746 49.9987 43.7554 50 43.0089C50.0025 41.5482 49.8746 41.3599 46.8005 38.2998C44.5891 36.0987 44.1847 35.7369 43.9365 35.7382C43.7775 35.7391 43.5815 35.7817 43.5008 35.833C43.3873 35.9051 43.1524 35.7258 42.4623 35.0401L41.5704 34.154L41.9506 33.5051C43.0115 31.695 43.9052 28.1631 43.47 27.4999C43.069 26.8885 42.1431 27.227 42.1354 27.9879C42.1336 28.1564 42.0643 28.6617 41.9812 29.1108C40.9232 34.8292 35.9348 38.8174 30.1831 38.5432C27.2745 38.4046 24.7838 37.3208 22.723 35.2973C20.8728 33.4806 19.808 31.4565 19.4086 28.9968C18.9376 26.0961 19.5742 23.1861 21.2145 20.7407C21.8786 19.7508 23.2929 18.3381 24.2839 17.6748C28.9679 14.5403 35.1295 15.2202 39.0134 19.3004C40.4659 20.8262 41.4149 22.5988 41.8999 24.6923C41.9822 25.0474 42.119 25.4148 42.2038 25.5088C42.4206 25.749 42.9624 25.7293 43.2202 25.4718C43.4029 25.2893 43.4208 25.1924 43.3672 24.6796C43.2944 23.9841 42.7554 22.3281 42.3205 21.4644C41.2321 19.302 39.5241 17.4234 37.5014 16.1642L36.7558 15.7V12.6112V9.52227L31.9891 4.76109L27.2224 0L14.5155 0.00995941C5.50545 0.0169896 1.70895 0.051457 1.46632 0.128301ZM30.9882 5.80966L34.2619 9.08064H31.2032H28.1445L27.9046 8.84093L27.6646 8.60132V5.56995C27.6646 3.90272 27.6758 2.53867 27.6896 2.53867C27.7033 2.53867 29.1877 4.01062 30.9882 5.80966ZM6.10967 13.6212C5.62872 13.791 5.22675 14.2218 5.08979 14.7143C5.033 14.9185 4.98823 15.8545 4.99028 16.7943C4.99517 19.0203 5.13281 19.4296 6.01191 19.8328C6.34614 19.9861 6.66579 20.0124 8.21139 20.0137C9.20605 20.0146 10.1805 19.9708 10.3769 19.9164C10.8219 19.7929 11.4047 19.1661 11.4883 18.7212C11.5224 18.5393 11.5359 17.5335 11.5183 16.4861L11.4862 14.5817L11.2043 14.2127C10.7072 13.5623 10.3757 13.4785 8.30915 13.4809C7.00461 13.4825 6.39169 13.5216 6.10967 13.6212ZM10.0199 16.7455V18.503L8.31638 18.5298C7.01898 18.5502 6.59404 18.5269 6.53383 18.4321C6.40029 18.2219 6.43392 15.1913 6.57136 15.054C6.65837 14.9671 7.14333 14.942 8.35539 14.9613L10.0199 14.9879V16.7455ZM29.7174 17.6353C25.0223 18.2078 21.549 21.8094 21.1591 26.5096C21.0441 27.8962 21.4418 30.0999 21.8649 30.4201C22.235 30.7003 22.7418 30.5698 22.9191 30.1487C23.0197 29.9096 23.0081 29.7396 22.8488 29.1137C22.5733 28.0318 22.5806 26.1979 22.8644 25.1426C23.6398 22.2604 25.8034 20.0991 28.691 19.3223C29.8888 19.0002 31.7162 19.0204 32.8737 19.3687C35.2422 20.0814 37.0075 21.58 38.0197 23.7376C38.5882 24.9491 38.7479 25.6964 38.7479 27.1443C38.7479 28.5922 38.5882 29.3395 38.0197 30.551C37.0106 32.7019 35.235 34.2094 32.8737 34.9199C32.1338 35.1425 31.8383 35.1782 30.7439 35.1774C28.261 35.1757 26.5154 34.4167 24.7597 32.5757C24.153 31.9395 23.8943 31.7334 23.7024 31.7334C23.0999 31.7334 22.7796 32.1967 23.0071 32.7389C23.213 33.2297 24.5261 34.499 25.45 35.1006C27.1612 36.2147 28.6635 36.653 30.7439 36.6451C31.8977 36.6407 32.2658 36.5996 33.09 36.3831C36.9329 35.3737 39.7586 32.1135 40.1985 28.1816C40.8126 22.6928 36.6383 17.8523 31.1029 17.6346C30.5291 17.6121 29.9056 17.6123 29.7174 17.6353ZM32.7967 23.237C32.5816 23.3434 31.8384 23.9985 31.1451 24.6927L29.8847 25.9548L29.4055 25.5765C28.6107 24.949 27.7743 24.8314 26.9314 25.2283C26.6626 25.3549 26.3464 25.5632 26.2288 25.6912C25.9112 26.0366 25.6163 26.7514 25.6139 27.1818C25.6092 28.0164 25.778 28.2946 27.1209 29.6648C28.5398 31.1125 28.7772 31.2901 29.5024 31.4455C29.916 31.534 30.1071 31.5243 30.5704 31.391C31.1145 31.2346 31.2142 31.1476 33.3344 28.9795C34.5441 27.7424 35.6092 26.616 35.7014 26.4764C36.1549 25.7895 36.1027 24.6545 35.5847 23.9403C35.0003 23.1345 33.6778 22.801 32.7967 23.237ZM5.87476 24.0249C5.10475 24.5004 4.98529 24.9092 4.98608 27.0655C4.98666 28.815 5.05998 29.2314 5.44904 29.6932C5.89265 30.2198 6.13948 30.269 8.33046 30.2672C10.201 30.2657 10.3348 30.2533 10.6968 30.0475C10.936 29.9115 11.1661 29.6673 11.3078 29.3991C11.5235 28.9906 11.535 28.8716 11.5329 27.0557C11.5305 24.8964 11.4469 24.5417 10.8378 24.1077C10.5175 23.8796 10.4508 23.8726 8.35803 23.8463C6.3171 23.8208 6.19041 23.8298 5.87476 24.0249ZM34.2836 24.7277C34.5839 25.0552 34.6243 25.3058 34.4337 25.655C34.2103 26.064 30.4207 29.8743 30.1247 29.9876C29.75 30.131 29.3395 29.8543 28.1685 28.6688C26.9578 27.4431 26.8581 27.2146 27.3177 26.7192C27.7134 26.2928 28.0381 26.366 28.8085 27.0554C29.5696 27.7364 29.7678 27.837 30.1084 27.7159C30.2429 27.6681 31.0347 26.9261 31.868 26.067C33.2717 24.6201 33.4089 24.5052 33.7328 24.5065C33.9692 24.5075 34.1475 24.5791 34.2836 24.7277ZM10.0199 27.0466V28.7554H8.26027H6.50069L6.47371 27.148C6.45895 26.264 6.46892 25.4831 6.496 25.4126C6.53451 25.3122 6.92015 25.2904 8.28256 25.3113L10.0199 25.3379V27.0466ZM6.01191 34.4558C5.13281 34.8589 4.99517 35.2682 4.99028 37.4943C4.98608 39.4199 5.06467 39.8386 5.51464 40.2881C5.98513 40.758 6.42571 40.8333 8.49381 40.7971C10.5311 40.7614 10.719 40.7109 11.2123 40.0654L11.4862 39.7069L11.5183 37.8025C11.5359 36.755 11.5224 35.7492 11.4883 35.5674C11.4047 35.1225 10.8219 34.4957 10.3769 34.3722C10.1805 34.3178 9.20605 34.274 8.21139 34.2748C6.66579 34.2762 6.34614 34.3025 6.01191 34.4558ZM41.4976 36.2257L42.2759 37.0076L41.4221 37.8605L40.5682 38.7133L39.7674 37.9134L38.9666 37.1136L39.7918 36.2828C40.2457 35.8259 40.6401 35.4502 40.6682 35.4479C40.6964 35.4456 41.0696 35.7957 41.4976 36.2257ZM10.0199 37.5431V39.3006L8.37093 39.3275C7.23786 39.3458 6.67977 39.3193 6.58691 39.2422C6.48241 39.1556 6.45181 38.7814 6.45181 37.5879C6.45181 36.7397 6.47889 35.9752 6.51203 35.8889C6.56462 35.7519 6.78828 35.7356 8.29605 35.7589L10.0199 35.7855V37.5431ZM46.1519 39.7156C48.4625 42.0503 48.5874 42.2229 48.5819 43.0711C48.5757 44.0389 47.5721 45.0116 46.5801 45.0116C45.8678 45.0116 45.648 44.8445 43.329 42.5402L41.0554 40.281L42.4479 38.8876C43.2138 38.1213 43.866 37.4943 43.897 37.4943C43.9281 37.4943 44.9428 38.4939 46.1519 39.7156Z" fill="black"/>
</svg>
