<svg width="40" height="39" viewBox="0 0 40 39" fill="none" xmlns="http://www.w3.org/2000/svg">
<path fill-rule="evenodd" clip-rule="evenodd" d="M7.29337 0.093007C6.30602 0.416602 5.59704 1.28623 5.49248 2.30215L5.44871 2.72721H4.37993C3.09749 2.72721 2.54348 2.81818 1.89835 3.13449C1.35396 3.40143 0.663423 4.07197 0.400213 4.58918C-0.016093 5.40733 8.41254e-05 4.87587 8.41254e-05 17.7443C8.41254e-05 26.2836 0.0250922 29.7906 0.0880031 30.0879C0.357621 31.3607 1.41163 32.4415 2.66618 32.7314C2.87343 32.7794 4.64049 32.8114 7.13731 32.8126L11.2657 32.8145L11.4942 32.5855C11.6492 32.43 11.7226 32.2778 11.7226 32.1114C11.7226 31.8141 11.5443 31.4477 11.3543 31.3549C11.2775 31.3173 9.33317 31.269 7.0336 31.2475C2.38273 31.2039 2.64383 31.2352 2.07974 30.6528C1.53269 30.0882 1.56309 30.7201 1.56309 19.9116V10.1707H16.2949H31.0266L31.0066 16.4531L30.9866 22.7356L30.3769 22.8388C28.2329 23.2019 26.075 24.7233 24.9035 26.6979C24.1807 27.9163 23.7608 29.347 23.7588 30.5985L23.7577 31.2423L20.638 31.2645L17.5181 31.2866L17.3206 31.4728C17.0725 31.7066 16.9935 32.0505 17.1186 32.3532C17.307 32.8092 17.3493 32.8145 20.8079 32.8145H23.9614L24.143 33.3826C25.6291 38.0308 30.9546 40.3192 35.3805 38.2113C36.9181 37.4791 38.3332 36.0946 39.0951 34.5774C40.9859 30.8119 39.8373 26.3929 36.3622 24.0624C35.3547 23.3868 34.2292 22.9613 32.8818 22.7466L32.5887 22.6999L32.5863 14.5353C32.5849 9.75283 32.5526 6.12896 32.5084 5.78726C32.3132 4.27961 31.1947 3.0903 29.7057 2.80721C29.4743 2.76318 28.7991 2.72721 28.2052 2.72721H27.1253L27.0795 2.43339C26.9031 1.30159 26.5007 0.715046 25.5552 0.212181C25.0657 -0.0481055 23.9752 -0.0575861 23.4314 0.193768C22.6229 0.567509 22.0157 1.40455 21.9121 2.28797L21.8606 2.72721H20.388C18.727 2.72721 18.9013 2.79906 18.8041 2.07438C18.7095 1.36921 18.148 0.631131 17.4107 0.242895C17.0484 0.0521071 16.9115 0.0254673 16.2944 0.0251539C15.7387 0.0249188 15.5143 0.0603341 15.2256 0.193768C14.4072 0.572131 13.8112 1.39366 13.7064 2.28789L13.6549 2.72721H12.1822C10.5212 2.72721 10.6956 2.79906 10.5983 2.07438C10.5034 1.36615 9.93641 0.623374 9.20492 0.249006C8.70797 -0.00548185 7.81596 -0.0781928 7.29337 0.093007ZM8.76556 1.84183C9.08067 2.15775 9.12662 2.43159 9.08582 3.74963C9.0469 5.00538 8.97884 5.23221 8.57855 5.43969C8.05369 5.71181 7.49187 5.55612 7.18646 5.05396C7.05314 4.83465 7.03415 4.65476 7.03391 3.60617C7.03352 2.24675 7.10519 1.96539 7.51735 1.70597C7.89599 1.4677 8.45281 1.52834 8.76556 1.84183ZM17.0058 1.88594C17.3146 2.22388 17.3844 2.65748 17.3339 3.92718C17.2942 4.92288 17.1812 5.23394 16.7843 5.43969C16.2595 5.71181 15.6976 5.55612 15.3922 5.05396C15.2589 4.83465 15.2399 4.65476 15.2397 3.60617C15.2394 2.74077 15.2706 2.33388 15.3519 2.13879C15.6211 1.49269 16.5206 1.35518 17.0058 1.88594ZM25.2116 1.88594C25.5194 2.22278 25.5864 2.63601 25.541 3.9184C25.5067 4.88503 25.4071 5.18677 25.043 5.4259C24.7721 5.60384 24.2159 5.61026 23.9544 5.43844C23.5099 5.14642 23.4458 4.91551 23.4454 3.60617C23.4452 2.74077 23.4763 2.33388 23.5577 2.13879C23.8269 1.49269 24.7263 1.35518 25.2116 1.88594ZM5.49099 4.75975C5.65753 6.60079 7.60175 7.69796 9.23806 6.87432C9.93813 6.52189 10.6262 5.52549 10.6296 4.85933C10.6302 4.74251 10.6519 4.56747 10.6777 4.47055C10.7245 4.29567 10.7367 4.29426 12.1898 4.29426H13.6546L13.6968 4.75975C13.8618 6.58497 15.8212 7.70149 17.4221 6.88271C18.263 6.45255 18.7265 5.74401 18.8718 4.66643L18.922 4.29426H20.3912H21.8604L21.9025 4.75975C21.9825 5.64341 22.5596 6.50701 23.3154 6.87385C24.9306 7.65777 26.7462 6.70343 27.035 4.91873C27.0801 4.63987 27.1173 4.38538 27.1176 4.35302C27.1187 4.24584 29.2582 4.28721 29.6377 4.40176C30.1345 4.55165 30.4935 4.8504 30.7556 5.33211C30.9746 5.73437 30.9805 5.77653 31.0123 7.17371L31.0448 8.60364H16.3039H1.56309L1.56481 7.21288C1.56668 5.68822 1.63749 5.37865 2.09521 4.89451C2.55942 4.4034 2.90399 4.31275 4.34609 4.30225L5.44887 4.29426L5.49099 4.75975ZM15.4738 12.9672C14.5935 13.1149 13.5831 13.6509 12.8922 14.3367C12.4642 14.7617 12.2765 15.0281 12.0036 15.5984C11.8133 15.996 11.6195 16.5082 11.5729 16.7365C11.3543 17.8078 11.5511 19.1079 12.0889 20.1449C12.3279 20.6059 12.6348 20.967 13.7669 22.1194L15.1525 23.5298L13.3203 25.3778C11.5074 27.2065 11.4882 27.2294 11.4882 27.5582C11.4882 27.9947 11.8125 28.3484 12.2128 28.3484C12.5936 28.3484 12.8624 28.1241 14.6909 26.2809L16.2916 24.6673L18.1333 26.5078C19.8694 28.243 19.9914 28.3484 20.263 28.3484C20.6988 28.3484 21.058 27.9975 21.058 27.5718C21.058 27.2553 21.023 27.2141 19.227 25.4122L17.396 23.5752L18.6466 22.2988C20.2325 20.6802 20.6113 20.132 20.9131 19.0189C21.0988 18.3338 21.0994 17.1013 20.9143 16.4827C20.3919 14.7369 19.0467 13.4364 17.3483 13.0351C16.879 12.9242 15.9338 12.89 15.4738 12.9672ZM17.5515 14.7473C18.912 15.3718 19.6952 16.7734 19.4762 18.192C19.3197 19.2055 19.0082 19.681 17.5452 21.14L16.2488 22.4328L14.9612 21.1255C13.8213 19.9683 13.6399 19.7478 13.3818 19.2059C13.1018 18.6178 13.0903 18.561 13.0921 17.7709C13.0945 16.7268 13.2687 16.2437 13.8817 15.5797C14.6356 14.7634 15.3703 14.4589 16.4629 14.5102C16.9404 14.5326 17.2134 14.5921 17.5515 14.7473ZM33.1977 24.3982C35.4177 24.8556 37.3321 26.5409 38.0652 28.6831C38.7026 30.5458 38.5319 32.4156 37.5664 34.1465C37.1177 34.9509 36.0339 36.0448 35.2102 36.5246C32.6708 38.0036 29.5825 37.659 27.4245 35.6559C24.6369 33.0684 24.6103 28.6964 27.3663 26.1117C28.2948 25.2409 29.4057 24.6386 30.5177 24.4028C31.2491 24.2478 32.4576 24.2457 33.1977 24.3982ZM34.7769 28.324C34.7124 28.3468 33.7549 29.2685 32.6492 30.3721L30.6387 32.3786L29.7395 31.4892L28.8402 30.5996L28.5068 30.6445C28.0644 30.704 27.8215 30.9807 27.8215 31.4254C27.8215 31.7417 27.8579 31.7878 29.0551 32.988C30.278 34.2141 30.2917 34.2248 30.6363 34.2248H30.9838L33.3883 31.8141C35.5653 29.6315 35.7929 29.379 35.7929 29.1462C35.7929 28.5561 35.2839 28.1442 34.7769 28.324ZM14.0974 31.3213C13.8629 31.4205 13.5982 31.7837 13.5982 32.0063C13.5982 32.4306 13.9694 32.8145 14.3797 32.8145C14.7939 32.8145 15.1612 32.4303 15.1612 31.9969C15.1612 31.558 14.5123 31.1458 14.0974 31.3213Z" fill="black"/>
</svg>
