<svg width="41" height="40" viewBox="0 0 41 40" fill="none" xmlns="http://www.w3.org/2000/svg">
<path d="M36.9392 18.3134C36.5824 18.3169 36.2785 18.0556 36.2286 17.7023C35.7243 14.2488 34.1185 11.0501 31.65 8.58136C29.1819 6.11257 25.9827 4.50604 22.5284 3.99986C22.3399 3.97354 22.1696 3.87333 22.0551 3.72142C21.9402 3.56952 21.8907 3.37829 21.9171 3.18992C21.972 2.79765 22.3349 2.52429 22.7273 2.57915C26.49 3.12714 29.9754 4.87509 32.6643 7.56307C35.3532 10.2511 37.1018 13.7349 37.6499 17.4967C37.7048 17.8848 37.4342 18.2444 37.0459 18.2993L36.9392 18.3134Z" fill="black"/>
<path d="M17.8247 37.4216H17.7251C13.9624 36.8736 10.477 35.1256 7.78806 32.4377C5.09916 29.7497 3.35059 26.2655 2.80242 22.5041C2.74754 22.1118 3.02099 21.749 3.41372 21.6941C3.80613 21.6393 4.16873 21.9126 4.22362 22.3052C4.72801 25.7587 6.33381 28.9575 8.80223 31.4262C11.2703 33.895 14.4696 35.5015 17.9239 36.0077C18.3166 36.0353 18.6123 36.3755 18.585 36.7678C18.5574 37.1601 18.217 37.456 17.8246 37.4284L17.8247 37.4216Z" fill="black"/>
<path d="M22.6274 37.4216C22.235 37.4489 21.8946 37.1533 21.867 36.761C21.8397 36.3684 22.1354 36.0282 22.5281 36.0009C25.9827 35.4967 29.1826 33.8914 31.6522 31.4239C34.1218 28.9566 35.7289 25.7585 36.2353 22.3054C36.2901 21.9128 36.6531 21.6394 37.0455 21.6943C37.4379 21.7491 37.7113 22.1119 37.6565 22.5042C37.1083 26.2656 35.3597 29.7498 32.6708 32.4378C29.9819 35.1258 26.4969 36.8737 22.7338 37.4217L22.6274 37.4216Z" fill="black"/>
<path d="M3.51263 18.3134H3.41333C3.02472 18.2582 2.75444 17.8989 2.80932 17.5108C3.35718 13.7491 5.10606 10.2648 7.79497 7.57718C10.4835 4.88928 13.9689 3.14092 17.732 2.59326C18.1244 2.53808 18.487 2.81175 18.5419 3.20403C18.5968 3.59631 18.3233 3.95878 17.9309 4.01396C14.4756 4.51629 11.2751 6.1197 8.80437 8.58588C6.33343 11.0522 4.72447 14.2491 4.21658 17.702C4.16709 18.0524 3.86699 18.313 3.51295 18.313L3.51263 18.3134Z" fill="black"/>
<path d="M20.2262 6.2512C19.3966 6.2531 18.6001 5.9252 18.0125 5.33975C17.4247 4.75435 17.0938 3.95964 17.0925 3.13035C17.0913 2.30074 17.4196 1.50506 18.0055 0.917778C18.5918 0.330782 19.3871 0.000650382 20.2167 9.15596e-07C21.0462 -0.000633289 21.8422 0.328225 22.429 0.914612C23.0159 1.50066 23.3458 2.29603 23.3458 3.12556C23.3458 3.95322 23.0172 4.74703 22.4325 5.33301C21.8475 5.91906 21.0541 6.24917 20.2262 6.25112V6.2512ZM20.2262 1.42777C19.7731 1.42587 19.3379 1.60441 19.0165 1.92375C18.6952 2.2431 18.5143 2.67723 18.5137 3.13038C18.5131 3.58323 18.6926 4.01772 19.013 4.33798C19.3334 4.65828 19.7684 4.83809 20.2214 4.83745C20.6744 4.83681 21.1087 4.65605 21.4284 4.33481C21.7479 4.01357 21.9265 3.57847 21.9246 3.12558C21.9246 2.67527 21.7456 2.24336 21.4271 1.92496C21.1086 1.60657 20.6766 1.42772 20.2261 1.42772L20.2262 1.42777Z" fill="black"/>
<path d="M3.34216 23.1219C2.51511 23.12 1.72273 22.7899 1.13898 22.2041C0.555592 21.6184 0.228197 20.8253 0.229496 19.9985C0.230765 19.1717 0.560367 18.3796 1.14597 17.7958C1.73126 17.2119 2.52469 16.8841 3.35134 16.8846C4.1784 16.8853 4.9711 17.2141 5.55582 17.7989C6.14055 18.3837 6.4688 19.1765 6.4688 20.0032C6.4669 20.8309 6.13666 21.624 5.55038 22.2088C4.96413 22.7933 4.17011 23.1218 3.34216 23.1218V23.1219ZM3.34216 18.3058V18.3054C2.89201 18.3073 2.46118 18.4878 2.14397 18.8071C1.82706 19.1262 1.64941 19.5581 1.65068 20.0081C1.65195 20.4578 1.83182 20.8888 2.15063 21.2062C2.46977 21.5236 2.90152 21.7018 3.35134 21.7012C3.8015 21.7006 4.23289 21.5214 4.55083 21.203C4.86902 20.8846 5.04762 20.4533 5.04762 20.0034C5.04762 19.5518 4.86775 19.1189 4.54767 18.8002C4.22758 18.4818 3.7936 18.3036 3.34216 18.3055V18.3058Z" fill="black"/>
<path d="M20.2259 39.9999C19.3957 40.0018 18.5992 39.6736 18.0113 39.0879C17.4234 38.5019 17.0929 37.7065 17.0923 36.8767C17.0917 36.047 17.4209 35.2511 18.0078 34.6644C18.595 34.0777 19.3912 33.7483 20.2211 33.7489C21.0513 33.7495 21.847 34.08 22.4328 34.6676C23.0191 35.2552 23.3474 36.0518 23.3455 36.8814C23.3436 37.7082 23.0143 38.5001 22.4297 39.0845C21.845 39.669 21.0526 39.9981 20.2258 40L20.2259 39.9999ZM20.2259 35.1765C19.7732 35.1746 19.3383 35.3528 19.0169 35.6719C18.6959 35.9906 18.5147 36.4241 18.5135 36.8766C18.5122 37.3292 18.6908 37.764 19.0103 38.0845C19.3297 38.4051 19.7637 38.5856 20.2164 38.5862C20.6691 38.5869 21.1037 38.4077 21.4238 38.0877C21.7442 37.7681 21.9244 37.3339 21.9244 36.8814C21.9244 36.4305 21.7455 35.9979 21.4273 35.6786C21.1091 35.3589 20.677 35.1785 20.2259 35.1766V35.1765Z" fill="black"/>
<path d="M37.1101 23.1219C36.2827 23.1219 35.4893 22.7934 34.9044 22.2083C34.3194 21.6235 33.9907 20.8304 33.9907 20.0033C33.9907 19.1763 34.3194 18.3832 34.9044 17.7984C35.4893 17.2133 36.2828 16.8848 37.1101 16.8848C37.9374 16.8848 38.7311 17.2133 39.3161 17.7984C39.9011 18.3832 40.2297 19.1763 40.2297 20.0033C40.2278 20.8298 39.8985 21.622 39.3139 22.2064C38.7292 22.7909 37.9371 23.1201 37.1101 23.1219V23.1219ZM37.1101 18.3058V18.3055C36.6599 18.3055 36.2279 18.4843 35.9093 18.8027C35.5908 19.1211 35.4119 19.553 35.4119 20.0033C35.4119 20.4537 35.5908 20.8856 35.9093 21.204C36.2278 21.5224 36.6599 21.7012 37.1101 21.7012C37.5605 21.7012 37.9926 21.5224 38.3111 21.204C38.6296 20.8856 38.8085 20.4537 38.8085 20.0033C38.8066 19.5537 38.627 19.123 38.3089 18.8049C37.991 18.4868 37.5599 18.3074 37.11 18.3055L37.1101 18.3058Z" fill="black"/>
<path d="M18.9544 31.5187C18.8539 31.5183 18.7546 31.4965 18.6632 31.4549C18.3698 31.3239 18.2007 31.0122 18.2511 30.6948L19.3881 23.8897H10.0504C9.77727 23.8887 9.52856 23.7314 9.41086 23.4847C9.29381 23.237 9.32965 22.944 9.50318 22.7318L20.9369 8.75208C21.1406 8.50124 21.4883 8.41973 21.7827 8.55324C22.0939 8.68516 22.269 9.01783 22.2017 9.3489L21.0648 16.154H30.4024C30.6756 16.155 30.9243 16.3123 31.042 16.559C31.159 16.8067 31.1232 17.0997 30.9497 17.3118L19.5159 31.2567C19.3789 31.4254 19.172 31.5224 18.9544 31.5193V31.5187ZM11.5502 22.4691H20.2268C20.4381 22.466 20.6399 22.5573 20.7772 22.7178C20.9146 22.8786 20.9733 23.092 20.9374 23.3003L20.099 28.2728L28.9104 17.5176H20.2265C20.0152 17.5208 19.8135 17.4295 19.6761 17.269C19.5388 17.1082 19.4801 16.8948 19.5159 16.6865L20.3543 11.714L11.5502 22.4691Z" fill="black"/>
</svg>
